<svg width="287" height="40" viewBox="0 0 287 40" fill="none" xmlns="http://www.w3.org/2000/svg">
    <path d="M24.394 4.50994C25.1957 4.35443 25.7257 4.3588 25.9141 4.56031C26.0324 4.68517 26.0652 4.89982 25.9119 5.16924C25.8287 5.31161 25.7411 5.43647 25.579 5.62921C18.7691 13.6525 13.5824 25.4957 12.1083 28.9127C11.9966 29.1514 11.8849 29.3858 11.7972 29.5391C11.6636 29.7801 11.4796 29.975 11.1533 29.9991C10.9737 30.0057 10.724 29.9662 10.3472 29.7406C5.82634 26.9501 3.14535 23.4828 3.14535 19.7132C3.14535 12.9078 11.8914 7.06608 24.394 4.50994ZM31.3725 9.62661C32.012 8.14155 33.1204 4.95897 35.659 3.69732C36.43 3.31182 37.3784 3.13221 38.2283 3.10592C38.4232 3.10592 38.5568 3.10592 38.616 3.10592C45.7215 3.10592 52.332 4.09158 57.8757 5.77816C57.9196 5.79567 58.0466 5.84605 58.0838 5.857C58.5986 6.03004 58.857 6.26441 58.857 6.55354C58.857 6.812 58.7256 7.00038 58.546 7.18217C58.4628 7.26321 58.3489 7.36178 58.1934 7.4932C56.9164 8.56209 53.0635 11.346 45.8091 14.119C43.2639 15.0915 40.0791 16.3028 36.752 17.0103C34.796 17.4243 27.5459 18.5282 31.3725 9.62661ZM65.2134 9.88068C65.3449 9.63974 65.531 9.44043 65.8552 9.41634C66.0414 9.40977 66.2823 9.45358 66.6613 9.67918C71.1778 12.4653 73.8653 15.9392 73.8653 19.7088C73.8653 26.5121 65.1171 32.3515 52.6167 34.9055C51.8107 35.061 51.285 35.061 51.0944 34.8595C50.9761 34.7259 50.9433 34.5156 51.0988 34.2484C51.1776 34.1082 51.2674 33.9812 51.4295 33.7884C58.2393 25.7629 63.4305 13.9197 64.9024 10.5049C65.0119 10.264 65.1236 10.034 65.2134 9.88068ZM45.7543 29.7603C45.1125 31.2476 44.0086 34.428 41.4634 35.694C40.7012 36.0708 39.7484 36.2591 38.8919 36.2789C38.7058 36.2898 38.57 36.2854 38.513 36.2854C31.4075 36.2854 24.7948 35.2998 19.2488 33.6132C19.2072 33.5979 19.0846 33.5475 19.0451 33.5299C18.5282 33.3591 18.2676 33.1291 18.2676 32.8378C18.2676 32.5815 18.4012 32.3888 18.5874 32.2114C18.6618 32.1303 18.7801 32.0295 18.9356 31.9047C20.2104 30.8314 24.0632 28.0431 31.3177 25.2701C33.8651 24.2976 37.0499 23.0841 40.377 22.3788C42.3308 21.9671 49.5809 20.8653 45.7543 29.7603ZM38.5064 39.4329C59.7748 39.4329 77.0129 30.6036 77.0129 19.7198C77.0129 8.81838 59.7748 0 38.5064 0C17.2425 0 0 8.81838 0 19.7198C0 30.6036 17.2425 39.4329 38.5064 39.4329Z" fill="white"/>
    <path d="M111.23 5.62939V16.3599H99.0587V5.62939H92.354V33.7995H99.0587V22.4688H111.23V33.7995H117.935V5.62939H111.23Z" fill="white"/>
    <path d="M142.524 5.62939L135.511 16.7849L128.499 5.62939H120.585L132.161 24.0437V33.7995H138.864V24.0437L150.433 5.62939H142.524Z" fill="white"/>
    <path d="M172.004 5.62939V26.2757C172.004 27.062 171.417 27.6972 170.583 27.6972H159.837V5.62939H153.134V33.7995H172.942C174.707 33.7995 176.124 33.2739 177.158 32.2466C178.188 31.2149 178.707 29.7978 178.707 28.0411V5.62939H172.004Z" fill="white"/>
    <path d="M204.737 5.62939H184.918V33.7995H191.623V11.7295H202.38C203.241 11.7295 203.799 12.4064 203.799 13.1401V33.7995H210.495V11.39C210.495 9.62898 209.974 8.21182 208.947 7.18454C207.913 6.15289 206.496 5.62939 204.737 5.62939Z" fill="white"/>
    <path d="M235.581 13.1905V26.2406C235.581 27.0007 235.023 27.6972 234.149 27.6972H223.412V11.7295H234.112C234.986 11.7295 235.581 12.3472 235.581 13.1905ZM236.523 5.62939H216.711V33.7995H236.523C238.286 33.7995 239.697 33.2739 240.731 32.2466C241.76 31.2171 242.284 29.8021 242.284 28.0411V11.39C242.284 9.62898 241.76 8.21182 240.729 7.18454C239.697 6.15289 238.284 5.62939 236.523 5.62939Z" fill="white"/>
    <path d="M267.072 11.7295V18.9862H254.901V13.162C254.901 12.4655 255.433 11.7295 256.324 11.7295H267.072ZM253.963 5.62939C252.202 5.62939 250.783 6.15289 249.755 7.18892C248.726 8.21839 248.205 9.63336 248.205 11.39V33.7995H254.901V25.0863H267.072V33.7995H273.773V5.62939H253.963Z" fill="white"/>
    <path d="M286.665 5.62939H280.302V33.7995H287V5.62939H286.665Z" fill="white"/>
</svg>
