<svg width="42" height="43" viewBox="0 0 42 43" fill="none" xmlns="http://www.w3.org/2000/svg">
    <path d="M15.2971 24.5648L14.3739 22.9214C13.6063 21.5485 14.0614 19.7933 15.3908 18.9995C16.256 18.484 16.789 17.5311 16.789 16.5C16.789 15.4689 16.256 14.516 15.3908 14.0005C14.0597 13.2013 13.6051 11.4419 14.3739 10.0648L15.3506 8.40762C16.1203 7.0288 17.8261 6.55313 19.1639 7.34429C19.5691 7.59252 20.0307 7.7259 20.5019 7.73095C22.0307 7.73112 23.2763 6.46399 23.2982 4.88619C23.2947 4.122 23.5863 3.38784 24.1086 2.84618C24.6309 2.30451 25.3408 1.99999 26.0813 2H27.9143C28.6701 1.99968 29.3938 2.31511 29.9206 2.87443C30.4474 3.43375 30.7324 4.18933 30.7107 4.96905C30.7156 5.45538 30.8448 5.93176 31.0853 6.35C31.4592 7.00801 32.0712 7.48552 32.7866 7.67722C33.5019 7.86892 34.2618 7.75908 34.8986 7.3719C36.2363 6.58075 37.9421 7.05641 38.7118 8.43524L39.6217 10.0648V10.0786C40.3814 11.4526 39.9279 13.2018 38.6048 14.0005C38.1814 14.2508 37.8304 14.613 37.5879 15.05C37.215 15.7106 37.1127 16.4974 37.3035 17.2361C37.4944 17.9748 37.9627 18.6045 38.6048 18.9857C39.2468 19.367 39.7152 19.9967 39.906 20.7354C40.0969 21.4741 39.9945 22.2608 39.6217 22.9214L38.6583 24.5786C37.884 25.9524 36.1793 26.4216 34.845 25.6281C34.4368 25.3873 33.9771 25.2544 33.5071 25.2414C32.7643 25.2377 32.051 25.5406 31.5258 26.0827C31.0006 26.6248 30.7071 27.361 30.7107 28.1276C30.7033 29.7162 29.4535 31 27.9143 31H26.0813C24.5368 31 23.2849 29.7078 23.2849 28.1138C23.28 27.6275 23.1507 27.1511 22.9102 26.7329C22.5434 26.0711 22.7612 25.8374 22.0476 25.6403" stroke="#8D7449" stroke-width="3" stroke-linecap="round" stroke-linejoin="round"/>
    <path d="M15.7398 31.339L24.3498 23.4051C26.1989 23.984 28.6901 23.7849 30.513 22.0714C32.7039 20.0525 33.1712 17.3093 31.7688 14.7396C31.7108 14.6331 31.6284 14.542 31.5283 14.4736C31.4282 14.4052 31.3133 14.3616 31.1931 14.3463C31.0729 14.331 30.9507 14.3444 30.8367 14.3856C30.7227 14.4267 30.6201 14.4944 30.5373 14.5829L28.2928 16.998C27.9505 16.8769 27.643 16.6742 27.3969 16.4074C27.1508 16.1405 26.9734 15.8177 26.8803 15.4669L29.4979 13.4284C29.5955 13.3524 29.6732 13.2538 29.7242 13.1411C29.7753 13.0284 29.7982 12.905 29.7909 12.7815C29.7837 12.658 29.7465 12.5381 29.6826 12.4321C29.6187 12.3262 29.53 12.2374 29.4241 12.1733C28.2969 11.4765 26.9644 11.1883 25.6499 11.3568C24.4012 11.5202 23.2071 12.0896 22.1912 13.0083C21.1862 13.9343 20.5059 15.0705 20.2392 16.3108C20.0001 17.4063 20.0876 18.5478 20.4908 19.594L11.8476 27.5585C9.72939 26.9164 7.27285 27.4008 5.65492 28.8917C4.62073 29.8447 3.95401 31.003 3.71912 32.233C3.46698 33.5533 3.72845 34.941 4.47143 36.2418C4.53079 36.346 4.61381 36.4347 4.71378 36.5008C4.81375 36.5669 4.92788 36.6086 5.04694 36.6225C5.166 36.6364 5.28665 36.622 5.39915 36.5807C5.51165 36.5393 5.61284 36.4721 5.69456 36.3844L7.93899 33.9691C8.28122 34.0902 8.58874 34.2929 8.83488 34.5597C9.08101 34.8265 9.25831 35.1494 9.3514 35.5003L6.73389 37.5387C6.63626 37.6147 6.55857 37.7133 6.50752 37.826C6.45646 37.9387 6.43358 38.0621 6.44084 38.1856C6.44809 38.3091 6.48527 38.429 6.54917 38.535C6.61306 38.6409 6.70176 38.7297 6.80761 38.7938C7.93532 39.4917 9.26954 39.7786 10.5845 39.6059C11.8369 39.4375 13.0323 38.8571 14.0412 37.9274C15.0462 37.0013 15.7253 35.8638 15.992 34.6235C16.2309 33.5276 16.1432 32.3857 15.7398 31.339ZM8.67391 37.962L10.6473 36.4255C10.7485 36.3467 10.8282 36.2436 10.879 36.1258C10.9299 36.008 10.9502 35.8793 10.9381 35.7516L10.9348 35.7155C10.8558 34.8903 10.5062 34.1143 9.94028 33.5085C9.3744 32.9027 8.62405 32.501 7.8061 32.366C7.68253 32.3465 7.55606 32.3577 7.43783 32.3985C7.3196 32.4394 7.21323 32.5087 7.12809 32.6004L5.36089 34.5025C4.84583 32.8942 5.30762 31.3038 6.69756 30.023C7.98819 28.8337 10.061 28.4688 11.7494 29.1487C11.8828 29.201 12.0283 29.2142 12.1689 29.1866C12.3095 29.159 12.4393 29.0918 12.543 28.993L21.922 20.3504C22.0434 20.242 22.1263 20.0971 22.1584 19.9375C22.1904 19.7779 22.1698 19.6122 22.0997 19.4653C21.2082 17.6262 21.6407 15.5831 23.2166 14.1309C24.5012 12.9688 26.087 12.5773 27.5561 13.0025L25.5834 14.5401C25.4823 14.619 25.4027 14.7221 25.3519 14.8399C25.3012 14.9577 25.2809 15.0864 25.293 15.2141L25.2966 15.2509C25.3752 16.0751 25.7238 16.8502 26.2884 17.4558C26.853 18.0613 27.6018 18.4634 28.4184 18.5995C28.4256 18.6007 28.4339 18.602 28.4411 18.6029C28.5624 18.6195 28.6859 18.6066 28.8012 18.5654C28.9164 18.5242 29.0201 18.4559 29.1034 18.3662L30.8519 16.4841C31.3247 18.0913 30.8472 19.674 29.4662 20.9465C27.981 22.3426 25.8302 22.3802 24.4539 21.8173C24.3201 21.7637 24.1737 21.7496 24.0321 21.7767C23.8905 21.8038 23.7596 21.8709 23.655 21.9701L14.3086 30.5827C14.1873 30.6915 14.1045 30.8367 14.0727 30.9965C14.0409 31.1563 14.0617 31.3221 14.132 31.4691C15.0235 33.3082 14.5915 35.3518 13.0105 36.8087C11.7316 37.9874 10.1457 38.3865 8.6738 37.9621L8.67391 37.962Z" fill="#8D7449" stroke="#8D7449"/>
</svg>
