<svg width="33" height="19" viewBox="0 0 33 19" fill="none" xmlns="http://www.w3.org/2000/svg">
    <path d="M30.3859 7.53638L27.8945 6.35198L25.6962 2.69737C25.3836 2.17458 24.9478 1.74408 24.4302 1.44694C23.9127 1.1498 23.3308 0.995955 22.74 1.00008H13.3795C12.8427 0.999443 12.313 1.12752 11.8312 1.37441C11.3494 1.6213 10.9285 1.9804 10.601 2.42396L7.76741 6.29852L3.03153 7.64914C2.44614 7.81769 1.93014 8.18232 1.56303 8.68685C1.19593 9.19137 0.998096 9.80779 1.00001 10.4411V12.3292C1.00001 13.927 2.2174 15.2436 3.74929 15.2436H4.15528C4.35144 16.0327 4.7933 16.7315 5.41151 17.2304C6.02972 17.7293 6.78928 18 7.57096 18C8.35264 18 9.1122 17.7293 9.7304 17.2304C10.3486 16.7315 10.7905 16.0327 10.9866 15.2436H21.6562C21.8524 16.0327 22.2942 16.7315 22.9125 17.2304C23.5307 17.7293 24.2902 18 25.0719 18C25.8536 18 26.6131 17.7293 27.2313 17.2304C27.8496 16.7315 28.2914 16.0327 28.4876 15.2436H29.2507C30.7826 15.2436 32 13.927 32 12.3294V10.174C32.0021 9.61915 31.8511 9.07537 31.5649 8.60765C31.2786 8.13992 30.8693 7.76802 30.3859 7.53638ZM7.57093 16.6581C7.12438 16.6581 6.68785 16.52 6.31656 16.2613C5.94527 16.0025 5.65588 15.6348 5.485 15.2045C5.31411 14.7743 5.2694 14.3009 5.35653 13.8441C5.44365 13.3874 5.65869 12.9678 5.97445 12.6385C6.29022 12.3092 6.69252 12.085 7.13049 11.9941C7.56846 11.9033 8.02243 11.9499 8.43499 12.1281C8.84754 12.3064 9.20016 12.6082 9.44824 12.9954C9.69632 13.3826 9.82873 13.8379 9.82871 14.3036C9.82802 14.9278 9.58993 15.5263 9.16666 15.9677C8.74339 16.4091 8.16951 16.6574 7.57093 16.6581ZM25.0719 16.6581C24.6254 16.6581 24.1889 16.52 23.8176 16.2613C23.4463 16.0025 23.1569 15.6348 22.986 15.2045C22.8151 14.7743 22.7704 14.3009 22.8575 13.8441C22.9447 13.3874 23.1597 12.9678 23.4755 12.6385C23.7912 12.3092 24.1935 12.085 24.6315 11.9941C25.0695 11.9033 25.5234 11.9499 25.936 12.1281C26.3485 12.3064 26.7012 12.6082 26.9492 12.9954C27.1973 13.3826 27.3297 13.8379 27.3297 14.3036C27.329 14.9278 27.0909 15.5263 26.6676 15.9677C26.2444 16.4091 25.6705 16.6574 25.0719 16.6581H25.0719ZM30.7295 12.3294C30.7295 13.1965 30.082 13.9186 29.2507 13.9186H28.5787C28.4839 13.0177 28.0737 12.1849 27.4265 11.58C26.7794 10.9751 25.9409 10.6406 25.0719 10.6406C24.2028 10.6406 23.3643 10.9751 22.7172 11.58C22.0701 12.1849 21.6598 13.0177 21.5651 13.9186H11.0777C10.983 13.0177 10.5727 12.1849 9.92558 11.58C9.27844 10.9751 8.43997 10.6406 7.57093 10.6406C6.70188 10.6406 5.86341 10.9751 5.21627 11.58C4.56913 12.1849 4.15886 13.0177 4.06412 13.9186H3.74929C2.91795 13.9186 2.2705 13.1965 2.2705 12.3294V10.4413C2.26796 10.098 2.37392 9.76339 2.572 9.48917C2.77008 9.21495 3.04925 9.01641 3.36637 8.92422L8.31709 7.51154C8.45067 7.47304 8.56825 7.38945 8.65141 7.27384L11.6136 3.22657C11.8218 2.94497 12.0894 2.71717 12.3957 2.56081C12.7019 2.40445 13.0386 2.32374 13.3795 2.32492H22.74C23.1159 2.32143 23.4863 2.41847 23.816 2.60678C24.1457 2.79508 24.4235 3.06836 24.6231 3.40054L26.9265 7.22971C26.9928 7.33909 27.0887 7.42557 27.202 7.47828L29.8601 8.74363C30.1217 8.86942 30.3429 9.07132 30.4971 9.32506C30.6514 9.5788 30.732 9.87359 30.7295 10.174V12.3294Z" fill="#8D7449" stroke="#8D7449"/>
</svg>
