<svg width="34" height="34" viewBox="0 0 34 34" fill="none" xmlns="http://www.w3.org/2000/svg">
    <path d="M16.8501 1C8.1105 1 1 8.1105 1 16.8501C1 25.5897 8.1105 32.7002 16.8501 32.7002C25.5897 32.7002 32.7002 25.5897 32.7002 16.8501C32.7002 8.1105 25.5897 1 16.8501 1ZM16.8501 2.32084C23.0238 2.32084 28.3068 6.19297 30.4075 11.6348L25.4595 13.2842C23.7623 13.8498 21.9275 13.7614 20.2915 13.0339C18.1046 12.0614 15.5954 12.0614 13.4091 13.0339L13.1588 13.1449C11.6716 13.8066 9.98544 13.9401 8.41108 13.5203L3.11929 12.1091C5.08965 6.41925 10.4986 2.32084 16.8501 2.32084ZM2.32084 16.8501C2.32084 16.7155 2.32736 16.5825 2.33108 16.4489L2.78974 16.6018C9.30116 18.7722 13.906 24.461 14.7251 31.2224C7.71755 30.1908 2.32084 24.1397 2.32084 16.8501ZM16.8501 31.3794C16.5878 31.3794 16.3274 31.3715 16.0685 31.3577C15.288 23.9608 10.3002 17.7131 3.20762 15.3493L2.43113 15.0905C2.50188 14.5077 2.60598 13.9352 2.74384 13.3755L8.07046 14.796C8.78438 14.9863 9.51736 15.0811 10.2497 15.0811C11.4299 15.0811 12.6073 14.836 13.6949 14.3523L13.9452 14.2414C15.7909 13.4197 17.9083 13.4204 19.7567 14.242C21.6931 15.1017 23.8666 15.2075 25.8772 14.5367L30.8253 12.8873C31.0281 13.6012 31.1774 14.3369 31.2689 15.0905L30.4924 15.3493C23.3997 17.7131 18.412 23.9608 17.6315 31.3577C17.3728 31.3715 17.1124 31.3794 16.8501 31.3794ZM18.9752 31.2224C19.7943 24.461 24.399 18.7722 30.9105 16.6018L31.3692 16.4489C31.3728 16.5825 31.3794 16.7155 31.3794 16.8501C31.3794 24.1397 25.9826 30.1908 18.9752 31.2224Z" fill="#8D7449" stroke="#8D7449"/>
</svg>
