<svg width="34" height="29" viewBox="0 0 34 29" fill="none" xmlns="http://www.w3.org/2000/svg">
    <path fill-rule="evenodd" clip-rule="evenodd" d="M17.15 11H13.3795C12.8427 10.9994 12.313 11.1274 11.8312 11.3743C11.3494 11.6212 10.9285 11.9803 10.601 12.4239L7.76741 16.2984L3.03153 17.6491C2.44614 17.8176 1.93014 18.1822 1.56303 18.6868C1.19593 19.1913 0.998096 19.8077 1.00001 20.441V22.3291C1.00001 23.9269 2.2174 25.2435 3.74929 25.2435H4.15528C4.35144 26.0326 4.7933 26.7315 5.41151 27.2303C6.02972 27.7292 6.78928 27.9999 7.57096 27.9999C8.35264 27.9999 9.1122 27.7292 9.7304 27.2303C10.3486 26.7315 10.7905 26.0326 10.9866 25.2435H21.6562C21.8524 26.0326 22.2942 26.7315 22.9125 27.2303C23.5307 27.7292 24.2902 27.9999 25.0719 27.9999C25.8536 27.9999 26.6131 27.7292 27.2313 27.2303C27.8496 26.7315 28.2914 26.0326 28.4876 25.2435H29.2507C30.7826 25.2435 32 23.9269 32 22.3293V20.1739C32.0021 19.6191 31.8511 19.0753 31.5649 18.6076C31.2786 18.1398 30.8693 17.7679 30.3859 17.5363L27.8945 16.3519L27.8195 16.2272C27.4332 16.4182 27.0281 16.5768 26.6077 16.6997L26.9265 17.2296C26.9928 17.339 27.0887 17.4255 27.202 17.4782L29.8601 18.7436C30.1217 18.8693 30.3429 19.0712 30.4971 19.325C30.6514 19.5787 30.732 19.8735 30.7295 20.1739V22.3293C30.7295 23.1964 30.082 23.9185 29.2507 23.9185H28.5787C28.4839 23.0176 28.0737 22.1848 27.4265 21.5799C26.7794 20.975 25.9409 20.6405 25.0719 20.6405C24.2028 20.6405 23.3643 20.975 22.7172 21.5799C22.0701 22.1848 21.6598 23.0176 21.5651 23.9185H11.0777C10.983 23.0176 10.5727 22.1848 9.92558 21.5799C9.27844 20.975 8.43998 20.6405 7.57093 20.6405C6.70188 20.6405 5.86341 20.975 5.21627 21.5799C4.56913 22.1848 4.15886 23.0176 4.06412 23.9185H3.74929C2.91795 23.9185 2.2705 23.1964 2.2705 22.3293V20.4412C2.26796 20.0979 2.37392 19.7633 2.572 19.4891C2.77008 19.2149 3.04925 19.0163 3.36637 18.9241L8.31709 17.5115C8.45067 17.473 8.56825 17.3894 8.65142 17.2738L11.6136 13.2265C11.8218 12.9449 12.0894 12.7171 12.3957 12.5607C12.7019 12.4044 13.0386 12.3237 13.3795 12.3248H17.5502C17.3778 11.9012 17.2431 11.4582 17.15 11ZM6.31656 26.2612C6.68785 26.5199 7.12438 26.658 7.57093 26.658C8.16951 26.6573 8.74339 26.409 9.16666 25.9676C9.58993 25.5262 9.82802 24.9277 9.82871 24.3035C9.82873 23.8378 9.69632 23.3825 9.44824 22.9953C9.20016 22.6081 8.84755 22.3063 8.43499 22.1281C8.02243 21.9498 7.56847 21.9032 7.13049 21.994C6.69252 22.0849 6.29022 22.3091 5.97445 22.6384C5.65869 22.9677 5.44365 23.3873 5.35653 23.844C5.2694 24.3008 5.31411 24.7742 5.485 25.2045C5.65588 25.6347 5.94527 26.0025 6.31656 26.2612ZM23.8176 26.2612C24.1888 26.5199 24.6253 26.658 25.0719 26.658C25.6705 26.6573 26.2444 26.4091 26.6676 25.9676C27.0909 25.5262 27.329 24.9277 27.3297 24.3035C27.3297 23.8378 27.1973 23.3825 26.9492 22.9953C26.7012 22.6081 26.3485 22.3063 25.936 22.1281C25.5234 21.9498 25.0695 21.9032 24.6315 21.994C24.1935 22.0849 23.7912 22.3091 23.4755 22.6384C23.1597 22.9677 22.9447 23.3873 22.8575 23.844C22.7704 24.3008 22.8151 24.7742 22.986 25.2045C23.1569 25.6347 23.4463 26.0025 23.8176 26.2612Z" fill="#8D7449"/>
    <path d="M17.15 11L17.64 10.9005L17.5587 10.5H17.15V11ZM13.3795 11L13.379 11.5H13.3795V11ZM11.8312 11.3743L12.0593 11.8193V11.8193L11.8312 11.3743ZM10.601 12.4239L10.1988 12.1269L10.1975 12.1287L10.601 12.4239ZM7.76741 16.2984L7.90453 16.7793L8.06964 16.7322L8.17099 16.5936L7.76741 16.2984ZM3.03153 17.6491L2.8944 17.1682L2.89318 17.1686L3.03153 17.6491ZM1.56303 18.6868L1.96733 18.981L1.96733 18.9809L1.56303 18.6868ZM1.00001 20.441H1.50002L1.50001 20.4395L1.00001 20.441ZM4.15528 25.2435L4.64051 25.1229L4.5462 24.7435H4.15528V25.2435ZM5.41151 27.2303L5.72552 26.8412L5.41151 27.2303ZM9.7304 27.2303L9.4164 26.8412L9.7304 27.2303ZM10.9866 25.2435V24.7435H10.5957L10.5014 25.1229L10.9866 25.2435ZM21.6562 25.2435L22.1414 25.1229L22.0471 24.7435H21.6562V25.2435ZM22.9125 27.2303L23.2265 26.8412L22.9125 27.2303ZM28.4876 25.2435V24.7435H28.0967L28.0023 25.1229L28.4876 25.2435ZM32 20.1739L31.5 20.172V20.1739H32ZM31.5649 18.6076L31.9914 18.3466V18.3466L31.5649 18.6076ZM30.3859 17.5363L30.6019 17.0854L30.6006 17.0847L30.3859 17.5363ZM27.8945 16.3519L27.4661 16.6096L27.5437 16.7388L27.6798 16.8035L27.8945 16.3519ZM27.8195 16.2272L28.248 15.9695L28.0106 15.5749L27.5979 15.779L27.8195 16.2272ZM26.6077 16.6997L26.4675 16.2198L25.845 16.4017L26.1793 16.9574L26.6077 16.6997ZM26.9265 17.2296L26.4981 17.4874L26.4989 17.4888L26.9265 17.2296ZM27.202 17.4782L27.4169 17.0267L27.4128 17.0248L27.202 17.4782ZM29.8601 18.7436L30.0768 18.2929L30.075 18.2921L29.8601 18.7436ZM30.4971 19.325L30.0699 19.5847V19.5847L30.4971 19.325ZM30.7295 20.1739L30.2295 20.1697V20.1739H30.7295ZM28.5787 23.9185L28.0814 23.9708L28.1285 24.4185H28.5787V23.9185ZM27.4265 21.5799L27.0851 21.9452L27.4265 21.5799ZM21.5651 23.9185V24.4185H22.0152L22.0623 23.9708L21.5651 23.9185ZM11.0777 23.9185L10.5805 23.9708L10.6276 24.4185H11.0777V23.9185ZM5.21627 21.5799L4.87483 21.2147L5.21627 21.5799ZM4.06412 23.9185V24.4185H4.5143L4.56138 23.9708L4.06412 23.9185ZM2.2705 20.4412H2.77052L2.77049 20.4375L2.2705 20.4412ZM2.572 19.4891L2.97732 19.7819L2.97732 19.7819L2.572 19.4891ZM3.36637 18.9241L3.22917 18.4433L3.2268 18.444L3.36637 18.9241ZM8.31709 17.5115L8.45428 17.9923L8.45552 17.9919L8.31709 17.5115ZM8.65142 17.2738L8.24792 16.9784L8.24552 16.9818L8.65142 17.2738ZM11.6136 13.2265L11.2115 12.9292L11.2101 12.9312L11.6136 13.2265ZM13.3795 12.3248L13.3778 12.8248H13.3795V12.3248ZM17.5502 12.3248V12.8248H18.2935L18.0133 12.1364L17.5502 12.3248ZM7.57093 26.658V27.158H7.57151L7.57093 26.658ZM6.31656 26.2612L6.60242 25.851L6.60242 25.851L6.31656 26.2612ZM9.16666 25.9676L9.52755 26.3137V26.3137L9.16666 25.9676ZM9.82871 24.3035L10.3287 24.304V24.3035L9.82871 24.3035ZM9.44824 22.9953L9.86925 22.7256L9.44824 22.9953ZM8.43499 22.1281L8.2367 22.5871H8.2367L8.43499 22.1281ZM5.97445 22.6384L5.61356 22.2924L5.97445 22.6384ZM25.0719 26.658L25.0718 27.158H25.0724L25.0719 26.658ZM23.8176 26.2612L24.1034 25.851L23.8176 26.2612ZM26.6676 25.9676L26.3068 25.6216L26.6676 25.9676ZM27.3297 24.3035L27.8297 24.304V24.3035L27.3297 24.3035ZM26.9492 22.9953L27.3703 22.7256V22.7256L26.9492 22.9953ZM25.936 22.1281L25.7377 22.5871H25.7377L25.936 22.1281ZM24.6315 21.994L24.5299 21.5045L24.6315 21.994ZM23.4755 22.6384L23.1146 22.2924L23.1146 22.2924L23.4755 22.6384ZM22.8575 23.844L22.3664 23.7503L22.3664 23.7503L22.8575 23.844ZM17.15 10.5H13.3795V11.5H17.15V10.5ZM13.3801 10.5C12.7631 10.4993 12.1551 10.6465 11.6032 10.9294L12.0593 11.8193C12.4709 11.6084 12.9224 11.4995 13.379 11.5L13.3801 10.5ZM11.6032 10.9294C11.0514 11.2121 10.5713 11.6224 10.1988 12.1269L11.0033 12.7209C11.2858 12.3382 11.6475 12.0303 12.0593 11.8193L11.6032 10.9294ZM10.1975 12.1287L7.36382 16.0033L8.17099 16.5936L11.0046 12.7191L10.1975 12.1287ZM7.63028 15.8176L2.8944 17.1682L3.16865 18.1299L7.90453 16.7793L7.63028 15.8176ZM2.89318 17.1686C2.19811 17.3687 1.58958 17.8005 1.15873 18.3926L1.96733 18.9809C2.2707 18.564 2.69416 18.2665 3.16988 18.1295L2.89318 17.1686ZM1.15873 18.3926C0.728125 18.9844 0.497782 19.7047 0.500017 20.4426L1.50001 20.4395C1.49841 19.9107 1.66373 19.3982 1.96733 18.981L1.15873 18.3926ZM0.500014 20.441V22.3291H1.50001V20.441H0.500014ZM0.500014 22.3291C0.500014 24.1722 1.91137 25.7435 3.74929 25.7435V24.7435C2.52343 24.7435 1.50001 23.6816 1.50001 22.3291H0.500014ZM3.74929 25.7435H4.15528V24.7435H3.74929V25.7435ZM3.67004 25.3641C3.89183 26.2563 4.39236 27.0504 5.09751 27.6194L5.72552 26.8412C5.19425 26.4125 4.81105 25.8089 4.64051 25.1229L3.67004 25.3641ZM5.09751 27.6194C5.80306 28.1888 6.67301 28.4999 7.57096 28.4999V27.4999C6.90555 27.4999 6.25638 27.2696 5.72552 26.8412L5.09751 27.6194ZM7.57096 28.4999C8.46891 28.4999 9.33885 28.1888 10.0444 27.6194L9.4164 26.8412C8.88554 27.2696 8.23637 27.4999 7.57096 27.4999V28.4999ZM10.0444 27.6194C10.7496 27.0504 11.2501 26.2563 11.4719 25.3641L10.5014 25.1229C10.3309 25.8089 9.94767 26.4125 9.4164 26.8412L10.0444 27.6194ZM10.9866 25.7435H21.6562V24.7435H10.9866V25.7435ZM21.171 25.3641C21.3928 26.2563 21.8933 27.0504 22.5984 27.6194L23.2265 26.8412C22.6952 26.4125 22.312 25.8089 22.1414 25.1229L21.171 25.3641ZM22.5984 27.6194C23.304 28.1888 24.1739 28.4999 25.0719 28.4999V27.4999C24.4065 27.4999 23.7573 27.2696 23.2265 26.8412L22.5984 27.6194ZM25.0719 28.4999C25.9699 28.4999 26.8398 28.1888 27.5453 27.6194L26.9173 26.8412C26.3865 27.2696 25.7373 27.4999 25.0719 27.4999V28.4999ZM27.5453 27.6194C28.2505 27.0504 28.751 26.2563 28.9728 25.3641L28.0023 25.1229C27.8318 25.8089 27.4486 26.4125 26.9173 26.8412L27.5453 27.6194ZM28.4876 25.7435H29.2507V24.7435H28.4876V25.7435ZM29.2507 25.7435C31.0886 25.7435 32.5 24.1722 32.5 22.3293H31.5C31.5 23.6816 30.4766 24.7435 29.2507 24.7435V25.7435ZM32.5 22.3293V20.1739H31.5V22.3293H32.5ZM32.5 20.1759C32.5025 19.5294 32.3266 18.8944 31.9914 18.3466L31.1384 18.8686C31.3756 19.2562 31.5018 19.7087 31.5 20.172L32.5 20.1759ZM31.9914 18.3466C31.656 17.7986 31.1745 17.3597 30.6019 17.0854L30.1698 17.9872C30.5642 18.1762 30.9013 18.4811 31.1384 18.8686L31.9914 18.3466ZM30.6006 17.0847L28.1092 15.9003L27.6798 16.8035L30.1712 17.9879L30.6006 17.0847ZM28.323 16.0942L28.248 15.9695L27.391 16.4849L27.4661 16.6096L28.323 16.0942ZM27.5979 15.779C27.2375 15.9572 26.8596 16.1052 26.4675 16.2198L26.748 17.1796C27.1967 17.0485 27.6289 16.8792 28.0411 16.6754L27.5979 15.779ZM26.1793 16.9574L26.4981 17.4874L27.355 16.9719L27.0362 16.442L26.1793 16.9574ZM26.4989 17.4888C26.6153 17.6809 26.7857 17.836 26.9911 17.9316L27.4128 17.0248C27.3916 17.015 27.3703 16.9972 27.3541 16.9705L26.4989 17.4888ZM26.9871 17.9297L29.6452 19.195L30.075 18.2921L27.4169 17.0267L26.9871 17.9297ZM29.6434 19.1942C29.8157 19.277 29.9647 19.4116 30.0699 19.5847L30.9244 19.0653C30.7211 18.7309 30.4277 18.4617 30.0768 18.2929L29.6434 19.1942ZM30.0699 19.5847C30.1752 19.7579 30.2313 19.9612 30.2295 20.1697L31.2295 20.1782C31.2328 19.7859 31.1275 19.3995 30.9244 19.0653L30.0699 19.5847ZM30.2295 20.1739V22.3293H31.2295V20.1739H30.2295ZM30.2295 22.3293C30.2295 22.9604 29.7674 23.4185 29.2507 23.4185V24.4185C30.3967 24.4185 31.2295 23.4324 31.2295 22.3293H30.2295ZM29.2507 23.4185H28.5787V24.4185H29.2507V23.4185ZM29.0759 23.8662C28.9689 22.8486 28.5052 21.9038 27.768 21.2147L27.0851 21.9452C27.6422 22.4659 27.9989 23.1866 28.0814 23.9708L29.0759 23.8662ZM27.768 21.2147C27.0302 20.525 26.0704 20.1405 25.0719 20.1405V21.1405C25.8114 21.1405 26.5286 21.425 27.0851 21.9452L27.768 21.2147ZM25.0719 20.1405C24.0733 20.1405 23.1135 20.525 22.3758 21.2147L23.0586 21.9452C23.6152 21.425 24.3323 21.1405 25.0719 21.1405V20.1405ZM22.3758 21.2147C21.6386 21.9038 21.1748 22.8486 21.0678 23.8662L22.0623 23.9708C22.1448 23.1866 22.5016 22.4659 23.0586 21.9452L22.3758 21.2147ZM21.5651 23.4185H11.0777V24.4185H21.5651V23.4185ZM11.575 23.8662C11.468 22.8486 11.0042 21.9038 10.267 21.2147L9.58414 21.9452C10.1412 22.4659 10.498 23.1866 10.5805 23.9708L11.575 23.8662ZM10.267 21.2147C9.52925 20.525 8.56945 20.1405 7.57093 20.1405V21.1405C8.3105 21.1405 9.02763 21.425 9.58414 21.9452L10.267 21.2147ZM7.57093 20.1405C6.57241 20.1405 5.6126 20.525 4.87483 21.2147L5.55771 21.9452C6.11422 21.425 6.83135 21.1405 7.57093 21.1405V20.1405ZM4.87483 21.2147C4.13763 21.9038 3.67388 22.8486 3.56686 23.8662L4.56138 23.9708C4.64385 23.1866 5.00064 22.4659 5.55771 21.9452L4.87483 21.2147ZM4.06412 23.4185H3.74929V24.4185H4.06412V23.4185ZM3.74929 23.4185C3.23255 23.4185 2.7705 22.9604 2.7705 22.3293H1.7705C1.7705 23.4324 2.60334 24.4185 3.74929 24.4185V23.4185ZM2.7705 22.3293V20.4412H1.7705V22.3293H2.7705ZM2.77049 20.4375C2.76872 20.1989 2.84252 19.9685 2.97732 19.7819L2.16668 19.1963C1.90532 19.5581 1.7672 19.997 1.77052 20.4449L2.77049 20.4375ZM2.97732 19.7819C3.11188 19.5956 3.29858 19.4646 3.50593 19.4043L3.2268 18.444C2.79992 18.5681 2.42828 18.8342 2.16668 19.1963L2.97732 19.7819ZM3.50356 19.405L8.45428 17.9923L8.17989 17.0307L3.22917 18.4433L3.50356 19.405ZM8.45552 17.9919C8.69969 17.9216 8.91038 17.77 9.05731 17.5657L8.24552 16.9818C8.22611 17.0088 8.20165 17.0244 8.17865 17.031L8.45552 17.9919ZM9.0549 17.5691L12.017 13.5218L11.2101 12.9312L8.24793 16.9785L9.0549 17.5691ZM12.0156 13.5238C12.1787 13.3032 12.387 13.1266 12.623 13.0061L12.1683 12.1154C11.7918 12.3076 11.4649 12.5866 11.2115 12.9292L12.0156 13.5238ZM12.623 13.0061C12.859 12.8856 13.1172 12.8239 13.3778 12.8248L13.3813 11.8249C12.96 11.8234 12.5448 11.9232 12.1683 12.1154L12.623 13.0061ZM13.3795 12.8248H17.5502V11.8248H13.3795V12.8248ZM18.0133 12.1364C17.8525 11.7412 17.7268 11.328 17.64 10.9005L16.66 11.0995C16.7593 11.5884 16.9031 12.0612 17.0871 12.5133L18.0133 12.1364ZM7.57093 26.158C7.22806 26.158 6.89105 26.0521 6.60242 25.851L6.0307 26.6714C6.48466 26.9878 7.02069 27.158 7.57093 27.158V26.158ZM8.80577 25.6216C8.47436 25.9672 8.02959 26.1575 7.57034 26.158L7.57151 27.158C8.30943 27.1572 9.01242 26.8509 9.52755 26.3137L8.80577 25.6216ZM9.32871 24.3029C9.32816 24.8014 9.13786 25.2752 8.80577 25.6216L9.52755 26.3137C10.042 25.7772 10.3279 25.0541 10.3287 24.304L9.32871 24.3029ZM9.02723 23.265C9.22304 23.5707 9.32872 23.9321 9.32871 24.3035L10.3287 24.3035C10.3287 23.7435 10.1696 23.1944 9.86925 22.7256L9.02723 23.265ZM8.2367 22.5871C8.55558 22.7248 8.83155 22.9596 9.02723 23.265L9.86925 22.7256C9.56877 22.2566 9.13951 21.8877 8.63328 21.6691L8.2367 22.5871ZM7.23204 22.4836C7.56879 22.4138 7.91809 22.4494 8.2367 22.5871L8.63328 21.6691C8.12678 21.4502 7.56814 21.3926 7.02894 21.5045L7.23204 22.4836ZM6.33534 22.9845C6.58264 22.7266 6.89512 22.5535 7.23204 22.4836L7.02894 21.5045C6.48992 21.6163 5.99779 21.8917 5.61356 22.2924L6.33534 22.9845ZM5.84767 23.9377C5.91705 23.574 6.08783 23.2426 6.33534 22.9845L5.61356 22.2924C5.22955 22.6928 4.97025 23.2006 4.86538 23.7503L5.84767 23.9377ZM5.94969 25.0199C5.81405 24.6784 5.77828 24.3015 5.84767 23.9377L4.86538 23.7503C4.76053 24.3 4.81417 24.87 5.02031 25.389L5.94969 25.0199ZM6.60242 25.851C6.31351 25.6497 6.08526 25.3613 5.94969 25.0199L5.02031 25.389C5.2265 25.9082 5.57702 26.3553 6.0307 26.6714L6.60242 25.851ZM25.0719 26.158C24.729 26.158 24.392 26.0521 24.1034 25.851L23.5317 26.6714C23.9856 26.9877 24.5216 27.158 25.0718 27.158L25.0719 26.158ZM26.3068 25.6216C25.9753 25.9672 25.5306 26.1575 25.0713 26.158L25.0724 27.158C25.8104 27.1572 26.5134 26.8509 27.0285 26.3137L26.3068 25.6216ZM26.8297 24.3029C26.8292 24.8014 26.6389 25.2753 26.3068 25.6216L27.0285 26.3137C27.543 25.7772 27.8289 25.0541 27.8297 24.304L26.8297 24.3029ZM26.5282 23.265C26.724 23.5707 26.8297 23.9321 26.8297 24.3035L27.8297 24.3035C27.8297 23.7435 27.6706 23.1944 27.3703 22.7256L26.5282 23.265ZM25.7377 22.5871C26.0566 22.7248 26.3326 22.9596 26.5282 23.265L27.3703 22.7256C27.0698 22.2566 26.6405 21.8877 26.1343 21.6691L25.7377 22.5871ZM24.733 22.4836C25.0698 22.4138 25.4191 22.4494 25.7377 22.5871L26.1343 21.6691C25.6278 21.4502 25.0691 21.3926 24.5299 21.5045L24.733 22.4836ZM23.8363 22.9845C24.0836 22.7266 24.3961 22.5535 24.733 22.4836L24.5299 21.5045C23.9909 21.6163 23.4988 21.8917 23.1146 22.2924L23.8363 22.9845ZM23.3487 23.9377C23.4181 23.574 23.5888 23.2426 23.8363 22.9845L23.1146 22.2924C22.7306 22.6928 22.4712 23.2006 22.3664 23.7503L23.3487 23.9377ZM23.4507 25.0199C23.3151 24.6784 23.2793 24.3015 23.3487 23.9377L22.3664 23.7503C22.2615 24.3 22.3152 24.87 22.5213 25.389L23.4507 25.0199ZM24.1034 25.851C23.8145 25.6497 23.5863 25.3613 23.4507 25.0199L22.5213 25.389C22.7275 25.9082 23.078 26.3553 23.5317 26.6714L24.1034 25.851Z" fill="#8D7449"/>
    <circle cx="24.5" cy="9.5" r="7.5" stroke="#8D7449" stroke-width="3"/>
    <path d="M22 9.42857L24.7273 12L28 8" stroke="#8D7449" stroke-width="3" stroke-linecap="round" stroke-linejoin="round"/>
</svg>
