<svg width="34" height="32" viewBox="0 0 34 32" fill="none" xmlns="http://www.w3.org/2000/svg">
    <path d="M30.8068 20.3123L28.3059 19.1781L27.5909 18.0223C28.9629 17.1551 30.0935 15.9549 30.8773 14.5336C31.6612 13.1122 32.0729 11.5156 32.0742 9.89245V5.14156C32.0719 5.00961 32.034 4.88072 31.9646 4.76848C31.8952 4.65624 31.7968 4.56481 31.6797 4.50382L25.258 1.08493C25.1516 1.0285 25.0329 0.999318 24.9124 1.00001C24.792 1.00071 24.6736 1.03125 24.5678 1.08891L18.3438 4.50779C18.2318 4.57085 18.1391 4.6631 18.0755 4.77472C18.0118 4.88633 17.9797 5.01312 17.9824 5.14156V9.98127C17.9719 11.3571 18.2566 12.7191 18.8174 13.9755H13.6094C13.0553 13.9761 12.5088 14.1041 12.0119 14.3495C11.5151 14.5948 11.0813 14.9511 10.7439 15.3906L7.90534 19.1156L3.13393 20.415C2.52363 20.5818 1.98467 20.9437 1.59936 21.4456C1.21405 21.9474 1.00355 22.5615 1 23.1942V25.0187C1.00517 25.7874 1.31293 26.5233 1.85665 27.0668C2.40037 27.6103 3.13629 27.9178 3.90508 27.9227H4.25195C4.46478 28.6886 4.92264 29.3636 5.55549 29.8446C6.18835 30.3256 6.96134 30.586 7.75622 30.586C8.5511 30.586 9.3241 30.3256 9.95695 29.8446C10.5898 29.3636 11.0477 28.6886 11.2605 27.9227H21.8875C22.1003 28.6886 22.5582 29.3636 23.1911 29.8446C23.8239 30.3256 24.5969 30.586 25.3918 30.586C26.1867 30.586 26.9597 30.3256 27.5925 29.8446C28.2254 29.3636 28.6832 28.6886 28.896 27.9227H29.6028C30.3716 27.9178 31.1075 27.6103 31.6512 27.0668C32.1949 26.5232 32.5026 25.7874 32.5078 25.0187V22.9364C32.5048 22.3822 32.343 21.8404 32.0415 21.3753C31.7401 20.9102 31.3116 20.5413 30.8068 20.3123ZM19.4277 5.56959L24.9443 2.54405L30.6289 5.5753V9.89245C30.6261 11.5062 30.1472 13.0833 29.2521 14.4261C28.357 15.7688 27.0855 16.8176 25.597 17.441C25.5954 17.4417 25.5878 17.4425 25.5861 17.4431L24.8943 17.7407L24.3313 17.4892C22.8726 16.8499 21.6318 15.7993 20.7609 14.4658C19.89 13.1324 19.4267 11.5739 19.4277 9.98127V5.56959ZM7.75604 29.1189C7.32239 29.1189 6.89847 28.9902 6.53791 28.7493C6.17735 28.5084 5.89633 28.1659 5.73038 27.7653C5.56444 27.3646 5.52103 26.9238 5.60564 26.4984C5.69025 26.0731 5.89908 25.6825 6.20573 25.3758C6.51237 25.0692 6.90306 24.8604 7.32838 24.7758C7.75371 24.6912 8.19456 24.7346 8.59521 24.9005C8.99585 25.0665 9.33828 25.3475 9.57921 25.7081C9.82013 26.0687 9.94872 26.4926 9.94872 26.9263C9.94807 27.5076 9.71685 28.0649 9.30578 28.476C8.89471 28.887 8.33737 29.1182 7.75604 29.1189ZM25.3918 29.1189C24.9582 29.1189 24.5342 28.9903 24.1737 28.7493C23.8131 28.5084 23.5321 28.166 23.3661 27.7653C23.2002 27.3647 23.1567 26.9238 23.2413 26.4985C23.3259 26.0732 23.5348 25.6825 23.8414 25.3758C24.1481 25.0692 24.5387 24.8604 24.9641 24.7758C25.3894 24.6912 25.8302 24.7346 26.2309 24.9005C26.6315 25.0665 26.974 25.3475 27.2149 25.7081C27.4558 26.0687 27.5844 26.4926 27.5844 26.9263C27.5838 27.5076 27.3525 28.0649 26.9415 28.4759C26.5304 28.887 25.9731 29.1182 25.3918 29.1189ZM31.0625 25.0187C31.0578 25.4042 30.9024 25.7727 30.6297 26.0453C30.3569 26.3179 29.9883 26.4729 29.6027 26.4774H28.9982C28.8842 25.6015 28.4554 24.7971 27.7917 24.2142C27.1281 23.6314 26.275 23.3099 25.3917 23.3099C24.5085 23.3099 23.6554 23.6314 22.9918 24.2142C22.3281 24.7971 21.8993 25.6015 21.7853 26.4774H11.3629C11.2489 25.6015 10.82 24.7971 10.1564 24.2142C9.49274 23.6314 8.63966 23.3099 7.7564 23.3099C6.87314 23.3099 6.02007 23.6314 5.35642 24.2142C4.69278 24.7971 4.26392 25.6015 4.14991 26.4774H3.90508C3.51948 26.4729 3.15093 26.3179 2.87816 26.0453C2.60539 25.7727 2.45004 25.4042 2.44531 25.0187V23.1942C2.44828 22.8782 2.55435 22.5718 2.7474 22.3216C2.94046 22.0714 3.20993 21.8911 3.51484 21.8081L8.51671 20.4432C8.67067 20.4014 8.80672 20.3103 8.90405 20.1839L11.8923 16.2664C12.0947 16.0034 12.3547 15.7904 12.6524 15.6438C12.9502 15.4971 13.2776 15.4208 13.6094 15.4208H19.6329C20.6603 16.9104 22.0804 18.0863 23.7354 18.818L24.6013 19.1931C24.6922 19.2322 24.7901 19.2523 24.889 19.2522C24.9879 19.252 25.0858 19.2317 25.1765 19.1924L26.1507 18.7714C26.2006 18.7503 26.2493 18.7273 26.2987 18.7054L27.1908 20.1297C27.266 20.25 27.375 20.3455 27.5042 20.4043L30.2088 21.6285C30.4611 21.7423 30.6755 21.9259 30.8268 22.1577C30.978 22.3895 31.0598 22.6597 31.0625 22.9364V25.0187Z" fill="#8D7449" stroke="#8D7449"/>
    <path d="M23 9.42857L25.2727 12L28 8" stroke="#8D7449" stroke-width="3" stroke-linecap="round" stroke-linejoin="round"/>
</svg>
