<svg width="38" height="37" viewBox="0 0 38 37" fill="none" xmlns="http://www.w3.org/2000/svg">
    <path d="M16.4198 24.3695L25.4269 16.0696C27.3613 16.6751 29.9674 16.4669 31.8744 14.6743C34.1664 12.5623 34.6552 9.69257 33.1881 7.00433C33.1275 6.89296 33.0413 6.79759 32.9366 6.72605C32.8319 6.65452 32.7117 6.60887 32.5859 6.59287C32.4601 6.57687 32.3323 6.59097 32.2131 6.63402C32.0938 6.67706 31.9864 6.74781 31.8999 6.84045L29.5518 9.36692C29.1938 9.24026 28.8721 9.02817 28.6146 8.74904C28.3571 8.46992 28.1716 8.13219 28.0742 7.76515L30.8125 5.63262C30.9146 5.55313 30.9959 5.44999 31.0493 5.3321C31.1027 5.2142 31.1266 5.08509 31.119 4.95589C31.1115 4.82669 31.0726 4.70127 31.0057 4.59044C30.9389 4.47961 30.8461 4.3867 30.7354 4.31971C29.5561 3.59077 28.1622 3.2892 26.7871 3.46549C25.4807 3.63644 24.2316 4.23217 23.1688 5.19316C22.1175 6.16192 21.4057 7.35052 21.1268 8.64803C20.8766 9.79401 20.9682 10.9882 21.39 12.0827L12.3481 20.4146C10.1321 19.7428 7.56229 20.2496 5.86972 21.8093C4.78784 22.8062 4.09036 24.0179 3.84463 25.3047C3.58086 26.6858 3.85439 28.1376 4.63164 29.4984C4.69374 29.6074 4.78059 29.7002 4.88518 29.7693C4.98976 29.8385 5.10915 29.8821 5.2337 29.8966C5.35825 29.9111 5.48447 29.8962 5.60216 29.8529C5.71985 29.8096 5.82571 29.7393 5.91119 29.6475L8.25915 27.1208C8.61717 27.2475 8.93888 27.4596 9.19637 27.7387C9.45385 28.0179 9.63933 28.3556 9.73671 28.7227L6.99846 30.8551C6.89633 30.9346 6.81506 31.0378 6.76165 31.1557C6.70825 31.2736 6.68431 31.4027 6.6919 31.5319C6.69948 31.6611 6.73838 31.7865 6.80522 31.8973C6.87206 32.0081 6.96485 32.1011 7.07559 32.1681C8.25532 32.8982 9.65108 33.1983 11.0267 33.0176C12.3368 32.8415 13.5874 32.2343 14.6429 31.2617C15.6942 30.2929 16.4046 29.1029 16.6837 27.8055C16.9335 26.659 16.8418 25.4644 16.4198 24.3695ZM9.02798 31.2979L11.0923 29.6906C11.1982 29.6081 11.2816 29.5003 11.3348 29.3771C11.388 29.2538 11.4093 29.1192 11.3966 28.9856L11.3931 28.9479C11.3105 28.0845 10.9447 27.2728 10.3528 26.639C9.76077 26.0052 8.97581 25.585 8.12013 25.4438C7.99086 25.4234 7.85856 25.4351 7.73488 25.4779C7.61119 25.5206 7.49992 25.5931 7.41085 25.689L5.56214 27.6788C5.02332 25.9963 5.50641 24.3326 6.96047 22.9927C8.31062 21.7486 10.479 21.3668 12.2453 22.0781C12.3848 22.1328 12.5371 22.1466 12.6842 22.1177C12.8312 22.0889 12.967 22.0186 13.0755 21.9152L22.8872 12.874C23.0142 12.7605 23.1009 12.6089 23.1344 12.442C23.1679 12.275 23.1464 12.1017 23.073 11.948C22.1405 10.0241 22.5929 7.88678 24.2415 6.36757C25.5853 5.15187 27.2443 4.74231 28.7811 5.18711L26.7174 6.79567C26.6117 6.87822 26.5284 6.98609 26.4753 7.1093C26.4222 7.23252 26.401 7.36713 26.4136 7.5007L26.4175 7.53927C26.4996 8.40146 26.8644 9.21233 27.455 9.84582C28.0456 10.4793 28.8289 10.8999 29.6833 11.0422C29.6907 11.0435 29.6995 11.0449 29.707 11.0459C29.8339 11.0632 29.9631 11.0497 30.0836 11.0066C30.2042 10.9635 30.3127 10.892 30.3998 10.7982L32.229 8.82937C32.7236 10.5106 32.2241 12.1663 30.7794 13.4976C29.2257 14.958 26.9756 14.9974 25.5358 14.4085C25.3958 14.3525 25.2427 14.3377 25.0946 14.3661C24.9464 14.3944 24.8095 14.4646 24.7001 14.5684L14.9225 23.5782C14.7957 23.6921 14.7091 23.844 14.6758 24.0111C14.6425 24.1783 14.6643 24.3518 14.7379 24.5055C15.6705 26.4294 15.2185 28.5673 13.5645 30.0915C12.2267 31.3245 10.5676 31.742 9.02786 31.298L9.02798 31.2979Z" fill="#8D7449" stroke="#8D7449"/>
</svg>
