<svg width="40" height="30" viewBox="0 0 40 30" fill="none" xmlns="http://www.w3.org/2000/svg">
    <path d="M33.2395 16.7096C30.9055 18.4799 27.9804 18.4044 25.8988 17.5023L17.3606 23.8463L17.1015 21.8126L25.2669 15.7457C25.4009 15.6432 25.5615 15.5811 25.7297 15.5671C25.8979 15.553 26.0667 15.5875 26.2159 15.6664C27.749 16.4916 30.2579 16.7131 32.1594 15.2708C33.9243 13.9594 34.6755 12.1755 34.3233 10.2459L32.0552 12.2216C31.9472 12.3157 31.8181 12.3825 31.6788 12.4163C31.5395 12.45 31.3941 12.4498 31.2549 12.4155C31.2467 12.4136 31.2371 12.411 31.2289 12.4087C30.2948 12.1496 29.4725 11.589 28.8899 10.8143C28.3072 10.0396 27.9969 9.09409 28.0071 8.12478L28.0074 8.08139C28.009 7.93123 28.0485 7.78392 28.1222 7.65304C28.1958 7.52216 28.3012 7.41192 28.4286 7.33251L30.9152 5.7855C29.2572 5.10922 27.3624 5.36946 25.7234 6.5641C23.7093 8.06059 22.9538 10.3861 23.7648 12.6374C23.8284 12.8171 23.8319 13.0125 23.775 13.1944C23.718 13.3763 23.6035 13.5348 23.4488 13.6461L17.3034 18.2122L17.1264 16.1176L21.8757 12.5888C21.5353 11.3209 21.5742 9.98099 21.9878 8.735C22.4513 7.32375 23.3836 6.08475 24.6679 5.13048C25.9641 4.18619 27.4247 3.67043 28.8988 3.6342C30.4501 3.60013 31.966 4.10015 33.1926 5.0505C33.3079 5.13812 33.4003 5.25248 33.4616 5.38371C33.5229 5.51495 33.5514 5.65913 33.5446 5.80383C33.5378 5.94852 33.496 6.0894 33.4226 6.21432C33.3493 6.33924 33.2467 6.44445 33.1236 6.52089L29.8244 8.57153C29.8896 8.99154 30.0562 9.38931 30.3099 9.73034C30.5636 10.0714 30.8966 10.3454 31.2801 10.5285L34.1915 7.99343C34.2987 7.90053 34.4266 7.83444 34.5644 7.80059C34.7022 7.76675 34.8461 7.76612 34.9842 7.79876C35.1223 7.8314 35.2507 7.89638 35.3588 7.98834C35.4669 8.08031 35.5516 8.19663 35.606 8.32773C36.9219 11.4928 36.0395 14.6292 33.2395 16.7096Z" fill="#8D7449"/>
    <path d="M17.1264 18.3437L17.3034 18.2122M17.3034 18.2122L23.4488 13.6461C23.6035 13.5348 23.718 13.3763 23.775 13.1944C23.8319 13.0125 23.8284 12.8171 23.7648 12.6374C22.9538 10.3861 23.7093 8.06059 25.7234 6.5641C27.3624 5.36946 29.2572 5.10922 30.9152 5.7855L28.4286 7.33251C28.3012 7.41192 28.1958 7.52216 28.1222 7.65304C28.0485 7.78392 28.009 7.93123 28.0074 8.08139L28.0071 8.12478C27.9969 9.09409 28.3072 10.0396 28.8899 10.8143C29.4725 11.589 30.2948 12.1496 31.2289 12.4087C31.2371 12.411 31.2467 12.4136 31.2549 12.4155C31.3941 12.4498 31.5395 12.45 31.6788 12.4163C31.8181 12.3825 31.9472 12.3157 32.0552 12.2216L34.3233 10.2459C34.6755 12.1755 33.9243 13.9594 32.1594 15.2708C30.2579 16.7131 27.749 16.4916 26.2159 15.6664C26.0667 15.5875 25.8979 15.553 25.7297 15.5671C25.5615 15.5811 25.4009 15.6432 25.2669 15.7457L17.1015 21.8126L17.3606 23.8463L25.8988 17.5023C27.9804 18.4044 30.9055 18.4799 33.2395 16.7096C36.0395 14.6292 36.9219 11.4928 35.606 8.32773C35.5516 8.19663 35.4669 8.08031 35.3588 7.98834C35.2507 7.89638 35.1223 7.8314 34.9842 7.79876C34.8461 7.76612 34.7022 7.76675 34.5644 7.80059C34.4266 7.83444 34.2987 7.90053 34.1915 7.99343L31.2801 10.5285C30.8966 10.3454 30.5636 10.0714 30.3099 9.73034C30.0562 9.38931 29.8896 8.99154 29.8244 8.57153L33.1236 6.52089C33.2467 6.44445 33.3493 6.33924 33.4226 6.21432C33.496 6.0894 33.5378 5.94852 33.5446 5.80383C33.5514 5.65913 33.5229 5.51495 33.4616 5.38371C33.4003 5.25248 33.3079 5.13812 33.1926 5.0505C31.966 4.10015 30.4501 3.60013 28.8988 3.6342C27.4247 3.67043 25.9641 4.18619 24.6679 5.13048C23.3836 6.08475 22.4513 7.32375 21.9878 8.735C21.5742 9.98099 21.5353 11.3209 21.8757 12.5888L17.1264 16.1176L17.3034 18.2122Z" stroke="#8D7449"/>
    <path fill-rule="evenodd" clip-rule="evenodd" d="M17.4467 26.6949V5.67797C17.4467 5.49816 17.3745 5.32571 17.246 5.19857C17.1175 5.07143 16.9432 5 16.7614 5C16.5797 5 16.4054 5.07143 16.2769 5.19857C16.1483 5.32571 16.0761 5.49816 16.0761 5.67797V9.0678H13.4883C12.9423 9.06944 12.4039 9.19506 11.9147 9.43499C11.4254 9.67491 10.9984 10.0227 10.6664 10.4517L7.83833 14.1258L3.09092 15.4078C2.49183 15.5704 1.96306 15.9227 1.58547 16.4107C1.20787 16.8987 1.00224 17.4957 1 18.1103V19.9044C1.00383 20.6471 1.30527 21.358 1.83821 21.8812C2.37115 22.4043 3.09206 22.697 3.84281 22.6949H4.21245C4.41805 23.4466 4.86814 24.1103 5.49316 24.5836C6.11819 25.0568 6.88336 25.3133 7.67044 25.3133C8.45752 25.3133 9.22269 25.0568 9.84772 24.5836C10.4727 24.1103 10.9228 23.4466 11.1284 22.6949H16.0761V28.322C16.0761 28.5018 16.1483 28.6743 16.2769 28.8014C16.4054 28.9286 16.5797 29 16.7614 29C16.9432 29 17.1175 28.9286 17.246 28.8014C17.3745 28.6743 17.4467 28.5018 17.4467 28.322V26.6949ZM6.4415 23.6C6.80531 23.8405 7.23303 23.9688 7.67058 23.9688C8.25711 23.9682 8.81944 23.7374 9.23418 23.3271C9.64892 22.9167 9.88221 22.3604 9.88286 21.7801C9.88286 21.3473 9.75311 20.9241 9.51003 20.5642C9.26694 20.2042 8.92142 19.9237 8.51718 19.7581C8.11294 19.5924 7.66812 19.5491 7.23898 19.6335C6.80984 19.718 6.41565 19.9264 6.10625 20.2325C5.79686 20.5386 5.58616 20.9286 5.5008 21.3531C5.41544 21.7777 5.45925 22.2178 5.62669 22.6177C5.79413 23.0176 6.07769 23.3595 6.4415 23.6ZM10.045 19.1151C10.7 19.6888 11.1202 20.4799 11.2261 21.339H16.0761V10.4237H13.4883C13.1531 10.4247 12.8226 10.5018 12.5223 10.649C12.2219 10.7961 11.9597 11.0096 11.7557 11.2727L8.78635 15.1304C8.6946 15.2489 8.56603 15.3344 8.42041 15.3736L3.45213 16.716C3.14272 16.7997 2.86951 16.9813 2.67421 17.2331C2.47891 17.4849 2.37227 17.793 2.37056 18.1103V19.9044C2.37398 20.2876 2.5309 20.6539 2.80689 20.9228C3.08289 21.1918 3.45543 21.3414 3.84281 21.339H4.11501C4.22099 20.4799 4.64112 19.6888 5.29613 19.1151C5.95114 18.5413 6.79573 18.2246 7.67058 18.2246C8.54542 18.2246 9.39002 18.5413 10.045 19.1151Z" fill="#8D7449"/>
    <path d="M17.4467 26.6949C17.4467 18.4873 17.4467 5.67797 17.4467 5.67797M17.4467 26.6949C17.4467 27.3303 17.4467 28.322 17.4467 28.322M17.4467 26.6949V5.67797M17.4467 26.6949V28.322M17.4467 5.67797C17.4467 5.49816 17.3745 5.32571 17.246 5.19857C17.1175 5.07143 16.9432 5 16.7614 5C16.5797 5 16.4054 5.07143 16.2769 5.19857C16.1483 5.32571 16.0761 5.49816 16.0761 5.67797V9.0678H13.4883C12.9423 9.06944 12.4039 9.19506 11.9147 9.43499C11.4254 9.67491 10.9984 10.0227 10.6664 10.4517L7.83833 14.1258L3.09092 15.4078C2.49183 15.5704 1.96306 15.9227 1.58547 16.4107C1.20787 16.8987 1.00224 17.4957 1 18.1103V19.9044C1.00383 20.6471 1.30527 21.358 1.83821 21.8812C2.37115 22.4043 3.09206 22.697 3.84281 22.6949H4.21245C4.41805 23.4466 4.86814 24.1103 5.49316 24.5836C6.11819 25.0568 6.88336 25.3133 7.67044 25.3133C8.45752 25.3133 9.22269 25.0568 9.84772 24.5836C10.4727 24.1103 10.9228 23.4466 11.1284 22.6949H16.0761V28.322C16.0761 28.5018 16.1483 28.6743 16.2769 28.8014C16.4054 28.9286 16.5797 29 16.7614 29C16.9432 29 17.1175 28.9286 17.246 28.8014C17.3745 28.6743 17.4467 28.5018 17.4467 28.322M7.67058 23.9688C7.23303 23.9688 6.80531 23.8404 6.4415 23.6C6.07769 23.3595 5.79413 23.0176 5.62669 22.6177C5.45925 22.2178 5.41544 21.7777 5.5008 21.3531C5.58616 20.9286 5.79686 20.5386 6.10625 20.2325C6.41565 19.9264 6.80984 19.718 7.23898 19.6335C7.66812 19.5491 8.11294 19.5924 8.51718 19.7581C8.92142 19.9237 9.26694 20.2042 9.51003 20.5642C9.75312 20.9241 9.88286 21.3473 9.88286 21.7801C9.88221 22.3604 9.64892 22.9167 9.23418 23.3271C8.81944 23.7374 8.25711 23.9682 7.67058 23.9688ZM11.2261 21.339C11.1202 20.4799 10.7 19.6888 10.045 19.1151C9.39002 18.5413 8.54542 18.2246 7.67058 18.2246C6.79573 18.2246 5.95114 18.5413 5.29613 19.1151C4.64112 19.6888 4.22099 20.4799 4.11501 21.339H3.84281C3.45543 21.3414 3.08289 21.1918 2.80689 20.9228C2.5309 20.6539 2.37398 20.2876 2.37056 19.9044V18.1103C2.37227 17.793 2.47891 17.4849 2.67421 17.2331C2.86951 16.9813 3.14272 16.7997 3.45213 16.716L8.42041 15.3736C8.56603 15.3344 8.6946 15.2489 8.78635 15.1304L11.7557 11.2727C11.9597 11.0096 12.2219 10.7961 12.5223 10.649C12.8226 10.5018 13.1531 10.4247 13.4883 10.4237H16.0761V21.339H11.2261Z" stroke="#8D7449"/>
</svg>
