<svg width="29" height="26" viewBox="0 0 29 26" fill="none" xmlns="http://www.w3.org/2000/svg">
    <path d="M27.6287 11.2296L26.1699 11.0907C26.0007 10.5092 25.7623 9.9496 25.46 9.42359L26.3827 8.32034C26.4909 8.19087 26.5467 8.02624 26.5392 7.85839C26.5317 7.69053 26.4615 7.53141 26.3422 7.41186L24.5221 5.58814C24.4016 5.46736 24.2398 5.39565 24.0685 5.38717C23.8973 5.37868 23.729 5.43404 23.597 5.5423L22.4783 6.45878C21.9473 6.1605 21.3829 5.92444 20.7967 5.75539L20.6564 4.31966C20.6398 4.15246 20.5607 3.99742 20.4345 3.88497C20.3084 3.77252 20.1443 3.71078 19.9745 3.71186H17.7006V1.67797C17.7006 1.49816 17.6284 1.32571 17.4999 1.19857C17.3714 1.07143 17.1971 1 17.0153 1C16.8336 1 16.6593 1.07143 16.5308 1.19857C16.4022 1.32571 16.33 1.49816 16.33 1.67797V5.0678H13.7422C13.1962 5.06944 12.6578 5.19506 12.1686 5.43499C11.6793 5.67491 11.2523 6.02273 10.9203 6.45166L8.09224 10.1258L3.34483 11.4078C2.74574 11.5704 2.21697 11.9227 1.83938 12.4107C1.46178 12.8988 1.25614 13.4957 1.25391 14.1103V15.9044C1.25773 16.6471 1.55918 17.358 2.09212 17.8812C2.62506 18.4043 3.34597 18.697 4.09672 18.6949H4.46636C4.67196 19.4466 5.12204 20.1103 5.74707 20.5836C6.37209 21.0568 7.13727 21.3133 7.92435 21.3133C8.71142 21.3133 9.4766 21.0568 10.1016 20.5836C10.7266 20.1103 11.1767 19.4466 11.3823 18.6949H16.33V24.322C16.33 24.5018 16.4022 24.6743 16.5308 24.8014C16.6593 24.9286 16.8336 25 17.0153 25C17.1971 25 17.3714 24.9286 17.4999 24.8014C17.6284 24.6743 17.7006 24.5018 17.7006 24.322V22.6949H19.9745C20.145 22.6947 20.3093 22.6317 20.4354 22.5182C20.5615 22.4047 20.6403 22.2488 20.6566 22.0809L20.797 20.6399C21.3847 20.4728 21.9503 20.2374 22.482 19.9385L23.5972 20.852C23.7286 20.9597 23.8959 21.015 24.0663 21.007C24.2368 20.9991 24.3981 20.9286 24.5188 20.8092L26.3622 18.9855C26.4829 18.8661 26.5542 18.7065 26.5622 18.5378C26.5701 18.3692 26.5142 18.2036 26.4054 18.0736L25.479 16.967C25.7806 16.4414 26.0192 15.8829 26.1902 15.3027L27.6293 15.1643C27.7993 15.1483 27.9573 15.0704 28.0727 14.9458C28.1881 14.8212 28.2526 14.6587 28.2539 14.4897V11.9044C28.2527 11.7353 28.1881 11.5727 28.0726 11.448C27.9571 11.3233 27.7989 11.2455 27.6287 11.2296ZM17.7006 10.3195C18.1611 10.1685 18.6513 10.1278 19.1307 10.2008C19.6102 10.2739 20.0653 10.4584 20.4587 10.7394C20.852 11.0204 21.1722 11.3897 21.3931 11.8171C21.614 12.2444 21.7291 12.7175 21.7291 13.1974C21.7291 13.6774 21.614 14.1505 21.3931 14.5778C21.1722 15.0051 20.852 15.3745 20.4587 15.6554C20.0653 15.9364 19.6102 16.121 19.1307 16.194C18.6513 16.267 18.1611 16.2264 17.7006 16.0754V10.3195ZM7.92448 19.9688C7.48693 19.9688 7.05921 19.8405 6.6954 19.6C6.33159 19.3595 6.04804 19.0176 5.8806 18.6177C5.71315 18.2178 5.66934 17.7777 5.7547 17.3531C5.84007 16.9286 6.05077 16.5386 6.36016 16.2325C6.66955 15.9264 7.06375 15.718 7.49289 15.6335C7.92203 15.5491 8.36685 15.5924 8.77109 15.7581C9.17533 15.9237 9.52084 16.2042 9.76393 16.5642C10.007 16.9241 10.1368 17.3473 10.1368 17.7801C10.1361 18.3604 9.90283 18.9167 9.48808 19.3271C9.07334 19.7374 8.51102 19.9682 7.92448 19.9688ZM11.4801 17.339C11.3741 16.4799 10.9539 15.6888 10.2989 15.1151C9.64392 14.5413 8.79933 14.2246 7.92448 14.2246C7.04964 14.2246 6.20504 14.5413 5.55003 15.1151C4.89503 15.6888 4.4749 16.4799 4.36891 17.339H4.09672C3.70934 17.3414 3.3368 17.1918 3.0608 16.9228C2.7848 16.6539 2.62789 16.2876 2.62446 15.9044V14.1103C2.62618 13.793 2.73282 13.4849 2.92812 13.2331C3.12341 12.9813 3.39663 12.7997 3.70604 12.716L8.67432 11.3736C8.81994 11.3344 8.94851 11.2489 9.04025 11.1304L12.0096 7.27275C12.2136 7.00955 12.4758 6.79615 12.7762 6.64896C13.0765 6.50177 13.407 6.42472 13.7422 6.42373H16.33V17.339H11.4801ZM26.8833 13.8746L25.5832 13.9995C25.4384 14.0134 25.3017 14.0723 25.1929 14.1678C25.084 14.2633 25.0085 14.3905 24.9772 14.5311C24.8059 15.2895 24.4973 16.0111 24.0664 16.661C23.9874 16.782 23.9493 16.9248 23.9578 17.0687C23.9663 17.2125 24.0209 17.3499 24.1137 17.461L24.9522 18.463L23.991 19.4136L22.9781 18.5838C22.8646 18.4908 22.7238 18.4365 22.5766 18.4289C22.4294 18.4214 22.2836 18.461 22.161 18.5419C21.5083 18.969 20.7809 19.2722 20.016 19.4359C19.8739 19.4666 19.7453 19.541 19.6487 19.6486C19.5522 19.7562 19.4926 19.8914 19.4787 20.0346L19.3521 21.339H17.7006V17.4805C18.3491 17.6233 19.0217 17.6201 19.6688 17.4713C20.3158 17.3224 20.9208 17.0317 21.4391 16.6205C21.9574 16.2094 22.3757 15.6883 22.6631 15.0957C22.9506 14.5032 23.0998 13.8543 23.0998 13.1971C23.0998 12.5398 22.9506 11.891 22.6631 11.2985C22.3757 10.7059 21.9574 10.1848 21.4391 9.77365C20.9208 9.36248 20.3158 9.07173 19.6688 8.92289C19.0217 8.77405 18.3491 8.77091 17.7006 8.9137V5.0678H19.3521L19.479 6.36549C19.4931 6.5083 19.5527 6.64297 19.6493 6.74997C19.7459 6.85696 19.8745 6.93072 20.0164 6.96054C20.783 7.129 21.5125 7.43331 22.1696 7.85878C22.2921 7.93682 22.4365 7.97421 22.5819 7.96555C22.7273 7.95688 22.8661 7.9026 22.9782 7.81058L23.9878 6.98305L24.9311 7.928L24.0899 8.93295C23.9959 9.04527 23.941 9.18458 23.9334 9.33021C23.9257 9.47584 23.9658 9.62002 24.0475 9.74136C24.4792 10.387 24.7855 11.1065 24.9509 11.8631C24.9829 12.004 25.0591 12.1312 25.1686 12.2267C25.2782 12.3222 25.4154 12.3809 25.5608 12.3946L26.8833 12.5202V13.8746Z" fill="#8D7449" stroke="#8D7449"/>
</svg>
