<svg width="28" height="30" viewBox="0 0 28 30" fill="none" xmlns="http://www.w3.org/2000/svg">
    <path fill-rule="evenodd" clip-rule="evenodd" d="M25.6508 9.21276L24.8109 7.75539C24.1004 6.52223 22.5258 6.09682 21.291 6.80439V6.80439C20.7032 7.15066 20.0018 7.2489 19.3415 7.07745C18.6812 6.906 18.1161 6.47894 17.7711 5.89045C17.5491 5.51639 17.4298 5.09034 17.4252 4.65538V4.65538C17.4453 3.95804 17.1822 3.28228 16.6959 2.78205C16.2096 2.28182 15.5416 1.99971 14.844 2H13.1519C12.4685 1.99999 11.8132 2.27234 11.331 2.75678C10.8489 3.24123 10.5797 3.89782 10.583 4.58128V4.58128C10.5627 5.99239 9.41297 7.12565 8.00171 7.12551C7.56676 7.12099 7.14071 7.0017 6.76665 6.77969V6.77969C5.5318 6.07212 3.95723 6.49753 3.24672 7.73069L2.34513 9.21276C1.63548 10.4444 2.0551 12.018 3.28378 12.7327V12.7327C4.08243 13.1938 4.57443 14.0459 4.57443 14.9682C4.57443 15.8904 4.08243 16.7425 3.28378 17.2036V17.2036C2.05666 17.9135 1.63658 19.4833 2.34513 20.7112V20.7112L3.19732 22.1809C3.53022 22.7816 4.08878 23.2249 4.74938 23.4126C5.40999 23.6004 6.11818 23.5171 6.71725 23.1813V23.1813C7.30617 22.8377 8.00795 22.7435 8.66662 22.9198C9.32528 23.0961 9.88625 23.5281 10.2248 24.12C10.4468 24.494 10.5661 24.9201 10.5706 25.355V25.355C10.5706 26.7806 11.7263 27.9363 13.1519 27.9363H14.844C16.2648 27.9363 17.4184 26.7882 17.4252 25.3674V25.3674C17.4219 24.6818 17.6928 24.0233 18.1776 23.5385C18.6624 23.0537 19.3209 22.7828 20.0065 22.7861C20.4404 22.7977 20.8647 22.9165 21.2416 23.1319V23.1319C22.4732 23.8416 24.0468 23.4219 24.7615 22.1933V22.1933L25.6508 20.7112C25.995 20.1204 26.0894 19.4167 25.9133 18.7561C25.7371 18.0954 25.3048 17.5322 24.7121 17.1913V17.1913C24.1194 16.8503 23.6871 16.2871 23.511 15.6265C23.3348 14.9658 23.4293 14.2621 23.7735 13.6713C23.9973 13.2805 24.3213 12.9565 24.7121 12.7327V12.7327C25.9334 12.0183 26.3521 10.454 25.6508 9.22511V9.22511V9.21276Z" stroke="#8D7449" stroke-width="3" stroke-linecap="round" stroke-linejoin="round"/>
    <circle cx="14.0047" cy="14.9679" r="3.55698" stroke="#8D7449" stroke-width="3" stroke-linecap="round" stroke-linejoin="round"/>
</svg>
