<svg width="23" height="29" viewBox="0 0 23 29" fill="none" xmlns="http://www.w3.org/2000/svg">
    <path d="M18.7824 5.90556H17.8988V5.5217C17.8979 5.2267 17.8394 4.93477 17.7267 4.66257C17.6139 4.39038 17.4492 4.14325 17.2418 3.9353C17.0344 3.72736 16.7884 3.56266 16.5179 3.45062C16.2475 3.33859 15.9578 3.2814 15.6654 3.28233H14.5426C14.2802 2.60945 13.8231 2.03187 13.2308 1.62479C12.6384 1.21771 11.9383 1 11.2217 1C10.505 1 9.8049 1.21771 9.21258 1.62479C8.62026 2.03187 8.16314 2.60945 7.90074 3.28233H6.80542C6.51502 3.28216 6.22748 3.34014 5.95946 3.45292C5.69144 3.56569 5.44827 3.73102 5.24404 3.93932C5.03982 4.14762 4.87861 4.39475 4.76974 4.66637C4.66088 4.938 4.60654 5.22872 4.60987 5.5217V5.90556H3.78108C2.13557 5.90556 0.80957 7.28488 0.80957 8.94509L0.809573 25C0.809237 25.3928 0.886022 25.7818 1.0355 26.1445C1.18497 26.5072 1.40417 26.8364 1.68045 27.1132C1.95672 27.39 2.2846 27.6088 2.64515 27.757C3.00569 27.9052 3.39177 27.9799 3.78108 27.9768H18.7824C19.1717 27.9799 19.5578 27.9052 19.9183 27.757C20.2789 27.6088 20.6068 27.39 20.883 27.1132C21.1593 26.8364 21.3785 26.5072 21.528 26.1445C21.6775 25.7818 21.7542 25.3928 21.7539 25V8.94509C21.7539 7.28488 20.4279 5.90556 18.7824 5.90556ZM6.05431 5.5217C6.05076 5.42008 6.06758 5.31878 6.10377 5.22387C6.13995 5.12897 6.19476 5.04241 6.26489 4.96939C6.33503 4.89637 6.41906 4.83838 6.51194 4.79891C6.60482 4.75944 6.70464 4.7393 6.80542 4.73968H8.42659C8.58989 4.73854 8.74804 4.68196 8.87557 4.57906C9.00311 4.47617 9.09259 4.33295 9.12961 4.17248C9.3696 3.14337 10.2082 2.44923 11.2168 2.44923C11.7049 2.44989 12.178 2.61952 12.557 2.92979C12.936 3.24005 13.1981 3.67216 13.2993 4.1539C13.3326 4.3187 13.4212 4.46689 13.5501 4.57356C13.679 4.68024 13.8404 4.7389 14.0071 4.73968H15.6659C15.7687 4.73857 15.8706 4.75793 15.9659 4.79667C16.0612 4.83541 16.1479 4.89276 16.2212 4.96543C16.2944 5.03809 16.3527 5.12464 16.3927 5.2201C16.4327 5.31556 16.4537 5.41805 16.4543 5.5217V8.38306H6.05431V5.5217ZM20.3095 25C20.31 25.2015 20.2707 25.4011 20.1939 25.587C20.1171 25.773 20.0043 25.9417 19.8621 26.0831C19.7199 26.2246 19.5512 26.3361 19.3658 26.411C19.1804 26.4859 18.9821 26.5228 18.7824 26.5194H3.78108C3.58141 26.5228 3.38309 26.4859 3.1977 26.411C3.01232 26.3361 2.8436 26.2246 2.70141 26.0831C2.55923 25.9417 2.44643 25.773 2.36961 25.587C2.29279 25.4011 2.25349 25.2015 2.25402 25L2.25401 8.94509C2.25401 8.08846 2.93204 7.36292 3.78108 7.36292H4.60987V9.13528C4.60643 9.22785 4.62179 9.32016 4.65498 9.40653C4.68818 9.4929 4.73853 9.57152 4.80293 9.63755C4.86733 9.70358 4.94442 9.75564 5.02948 9.79052C5.11454 9.82541 5.20577 9.84239 5.29757 9.84042H17.1734C17.2671 9.84311 17.3605 9.8269 17.448 9.79275C17.5354 9.7586 17.6153 9.70719 17.6828 9.64153C17.7504 9.57587 17.8043 9.49728 17.8413 9.41035C17.8784 9.32342 17.8979 9.22991 17.8988 9.13528V7.36292H18.7824C19.6314 7.36292 20.3095 8.08846 20.3095 8.94509V25Z" fill="#8D7449" stroke="#8D7449"/>
    <path d="M7.25391 16.1429L10.8903 20L15.2539 14" stroke="#8D7449" stroke-width="3" stroke-linecap="round" stroke-linejoin="round"/>
</svg>
