<svg width="15" height="15" viewBox="0 0 15 15" fill="none" xmlns="http://www.w3.org/2000/svg">
    <path d="M14.4064 8.35022C13.7689 8.13772 13.3439 7.81897 13.3439 7.50022C13.3439 7.18147 13.7689 6.80959 14.4064 6.65022C14.672 6.54397 14.8314 6.27834 14.7782 6.01272C14.5657 5.05647 14.247 4.20647 13.6626 3.40959C13.5032 3.19709 13.2376 3.09084 12.972 3.25022C12.3876 3.56897 11.8032 3.62209 11.5907 3.40959C11.3782 3.19709 11.4314 2.61272 11.7501 2.02834C11.8564 1.76272 11.8032 1.49709 11.5907 1.33772C10.7939 0.806468 9.89075 0.434593 8.98762 0.222093C8.722 0.168968 8.45637 0.328343 8.35012 0.593968C8.13762 1.23147 7.81887 1.65647 7.50012 1.65647C7.18137 1.65647 6.80949 1.23147 6.65012 0.593968C6.54387 0.328343 6.27825 0.168968 6.01262 0.222093C5.05637 0.434593 4.20637 0.753343 3.4095 1.33772C3.14387 1.44397 3.09075 1.76272 3.197 1.97522C3.51575 2.55959 3.56887 3.14397 3.35637 3.35647C3.14387 3.56897 2.61262 3.51584 1.97512 3.19709C1.7095 3.09084 1.44387 3.14397 1.2845 3.35647C0.753245 4.15334 0.38137 5.05647 0.16887 5.95959C0.115745 6.22522 0.27512 6.49084 0.540745 6.59709C1.17825 6.80959 1.60325 7.12834 1.60325 7.44709C1.60325 7.76584 1.17825 8.13772 0.540745 8.29709C0.27512 8.40334 0.115745 8.66897 0.16887 8.93459C0.38137 9.89084 0.70012 10.7408 1.2845 11.5377C1.44387 11.7502 1.7095 11.8565 1.97512 11.6971C2.5595 11.3783 3.14387 11.3252 3.35637 11.5377C3.56887 11.7502 3.51575 12.3346 3.197 12.919C3.09075 13.1846 3.14387 13.4502 3.35637 13.6096C4.15324 14.1408 5.05637 14.5127 5.9595 14.7252C6.22512 14.7783 6.49075 14.619 6.597 14.3533C6.8095 13.7158 7.12825 13.2908 7.447 13.2908C7.76575 13.2908 8.13762 13.7158 8.297 14.3533C8.35012 14.5658 8.56262 14.7252 8.82825 14.7252C8.88137 14.7252 8.88137 14.7252 8.9345 14.7252C9.89075 14.5127 10.7407 14.194 11.5376 13.6096C11.7501 13.4502 11.8564 13.1846 11.697 12.919C11.3782 12.3346 11.3251 11.7502 11.5376 11.5377C11.7501 11.3252 12.3345 11.3783 12.9189 11.6971C13.1845 11.8033 13.4501 11.7502 13.6095 11.5377C14.1407 10.7408 14.5126 9.83772 14.7251 8.93459C14.8314 8.72209 14.672 8.45647 14.4064 8.35022ZM7.50012 11.219C5.42825 11.219 3.78137 9.57209 3.78137 7.50022C3.78137 5.42834 5.42825 3.78147 7.50012 3.78147C9.572 3.78147 11.2189 5.42834 11.2189 7.50022C11.2189 9.57209 9.572 11.219 7.50012 11.219Z" fill="white"/>
</svg>
