<svg xmlns="http://www.w3.org/2000/svg" display="none">

    <symbol id="house" viewBox="0 0 25 25">
        <path d="M13.3 1.3174C12.9802 1.12249 12.5784 1.12255 12.2587 1.31757L1.47923 7.89328C1.18159 8.07485 1 8.39833 1 8.74698V23C1 23.5523 1.44772 24 2 24H8.21429C8.76657 24 9.21429 23.5523 9.21429 23V16.1538C9.21429 15.6016 9.662 15.1538 10.2143 15.1538H14.7857C15.338 15.1538 15.7857 15.6016 15.7857 16.1538V23C15.7857 23.5523 16.2334 24 16.7857 24H23C23.5523 24 24 23.5523 24 23V8.40144C24 8.05267 23.8183 7.72911 23.5205 7.54758L13.3 1.3174Z"
              stroke-width="2"/>
    </symbol>

    <symbol id="user" viewBox="0 0 25 25">
        <path d="M1 21.0445C1 20.8103 1.12775 20.2962 1.55733 19.605C1.97133 18.9389 2.62181 18.1816 3.54264 17.4672C5.3743 16.0463 8.28025 14.793 12.5 14.793C16.7036 14.793 19.6084 16.1188 21.4474 17.583C22.3725 18.3195 23.029 19.0919 23.4475 19.7517C23.8911 20.4512 24 20.915 24 21.0445V21.0481V21.0517V21.0553V21.0588V21.0624V21.066V21.0696V21.0732V21.0768V21.0804V21.084V21.0876V21.0912V21.0949V21.0985V21.1021V21.1057V21.1093V21.1129V21.1166V21.1202V21.1238V21.1274V21.1311V21.1347V21.1383V21.142V21.1456V21.1493V21.1529V21.1565V21.1602V21.1638V21.1675V21.1711V21.1748V21.1784V21.1821V21.1858V21.1894V21.1931V21.1967V21.2004V21.2041V21.2077V21.2114V21.2151V21.2188V21.2224V21.2261V21.2298V21.2335V21.2372V21.2409V21.2445V21.2482V21.2519V21.2556V21.2593V21.263V21.2667V21.2704V21.2741V21.2778V21.2815V21.2852V21.2889V21.2926V21.2963V21.3V21.3038V21.3075V21.3112V21.3149V21.3186V21.3223V21.3261V21.3298V21.3335V21.3372V21.341V21.3447V21.3484V21.3522V21.3559V21.3596V21.3634V21.3671V21.3709V21.3746V21.3783V21.3821V21.3858V21.3896V21.3933V21.3971V21.4008V21.4046V21.4083V21.4121V21.4159V21.4196V21.4234V21.4271V21.4309V21.4347V21.4384V21.4422V21.446V21.4497V21.4535V21.4573V21.4611V21.4648V21.4686V21.4724V21.4762V21.48V21.4837V21.4875V21.4913V21.4951V21.4989V21.5027V21.5065V21.5102V21.514V21.5178V21.5216V21.5254V21.5292V21.533V21.5368V21.5406V21.5444V21.5482V21.552V21.5558V21.5596V21.5634V21.5673V21.5711V21.5749V21.5787V21.5825V21.5863V21.5901V21.5939V21.5978V21.6016V21.6054V21.6092V21.613V21.6169V21.6207V21.6245V21.6283V21.6322V21.636V21.6398V21.6437V21.6475V21.6513V21.6551V21.659V21.6628V21.6667V21.6705V21.6743V21.6782V21.682V21.6858V21.6897V21.6935V21.6974V21.7012V21.7051V21.7089V21.7127V21.7166V21.7204V21.7243V21.7281V21.732V21.7358V21.7397V21.7436V21.7474V21.7513V21.7551V21.759V21.7628V21.7667V21.7705V21.7744V21.7783V21.7821V21.786V21.7899V21.7937V21.7976V21.8014V21.8053V21.8092V21.813V21.8169V21.8208V21.8246V21.8285V21.8324V21.8363V21.8401V21.844V21.8479V21.8517V21.8556V21.8595V21.8634V21.8672V21.8711V21.875V21.8789V21.8828V21.8866V21.8905V21.8944V21.8983V21.9022V21.906V21.9099V21.9138V21.9177V21.9216V21.9254V21.9293V21.9332V21.9371V21.941V21.9449V21.9488V21.9526V21.9565V21.9604V21.9643V21.9682V21.9721V21.976V21.9799V21.9838V21.9877V21.9915V21.9954V21.9993V22.0032V22.0071V22.011V22.0149V22.0188V22.0227V22.0266V22.0305V22.0344V22.0383V22.0422V22.0461V22.05V22.0539V22.0578V22.0616V22.0655V22.0694V22.0733V22.0772V22.0811V22.085V22.0889V22.0928V22.0967V22.1006V22.1045V22.1084V22.1123V22.1162V22.1201V22.124V22.1279V22.1318V22.1357V22.1396V22.1435V22.1474V22.1513V22.1552V22.1591V22.163V22.1669V22.1708V22.1747V22.1786V22.1826V22.1865V22.1904V22.1943V22.1982V22.2021V22.206V22.2099V22.2138V22.2177V22.2216V22.2255V22.2294V22.2333V22.2372V22.2411V22.245V22.2489V22.2528V22.2567V22.2606V22.2645V22.2684V22.2723V22.2762V22.2801V22.284V22.2879V22.2918V22.2957V22.2996V22.3035V22.3074V22.3113V22.3152V22.3191V22.323V22.3269V22.3308V22.3347V22.3386V22.3425V22.3464V22.3503V22.3542V22.3581V22.362V22.3659V22.3698V22.3737V22.3776V22.3815V22.3854V22.3892V22.3931V22.397V22.4009V22.4048V22.4087V22.4126V22.4165V22.4204V22.4243V22.4282V22.4321V22.436V22.4398V22.4437V22.4476V22.4515V22.4554V22.4593V22.4632V22.4671V22.471V22.4748V22.4787V22.4826V22.4865V22.4904V22.4943V22.4982V22.502V22.5059V22.5098V22.5137V22.5176V22.5214V22.5253V22.5292V22.5331V22.537V22.5408V22.5447V22.5486V22.5525V22.5563V22.5602V22.5641V22.568V22.5718V22.5757V22.5796V22.5835V22.5873V22.5912V22.5951V22.5989V22.6028V22.6067V22.6105V22.6144V22.6183V22.6221V22.626V22.6298V22.6337V22.6376V22.6414V22.6453V22.6492V22.653V22.6569V22.6607V22.6646V22.6684V22.6723V22.6761V22.68V22.6838V22.6877V22.6915V22.6954V22.6992V22.7031V22.7069V22.7108V22.7146V22.7185V22.7223V22.7262V22.73V22.7338V22.7377V22.7415V22.7454V22.7492V22.753V22.7569V22.7607V22.7645V22.7684V22.7722V22.776V22.7799V22.7837V22.7875V22.7913V22.7952V22.799V22.8028V22.8066V22.8104V22.8143V22.8181V22.8219V22.8257V22.8295V22.8333V22.8372V22.841V22.8448V22.8486V22.8524V22.8562V22.86V22.8638V22.8676V22.8714V22.8752V22.879V22.8828V22.8866V22.8904V22.8942V22.898V22.9018V22.9056V22.9094V22.9132V22.917V22.9208V22.9245V22.9283V22.9321V22.9359V22.9397V22.9435V22.9472V22.951V22.9548V22.9586V22.9623V22.9661V22.9699V22.9737V22.9774V22.9812V22.985V22.9887V22.9925V22.9962V23C24 23.5522 23.5524 23.9999 23 23.9999H2C1.44769 23.9999 1 23.5522 1 22.9999V21.0445Z"
              stroke-width="2"/>
        <circle cx="12.0692" cy="6.03448" r="5.03448" stroke-width="2"/>
    </symbol>

    <symbol id="message" viewBox="0 0 27 22">
        <path d="M26 2C26 1.44772 25.5523 1 25 1H2C1.44772 1 1 1.44772 1 2V16.8422C1 17.3944 1.44772 17.8422 2 17.8422H4.37198C4.57302 17.8422 4.76939 17.9028 4.93547 18.016L8.77386 20.6342C9.10005 20.8567 9.52663 20.8664 9.86262 20.659L14.1844 17.9912C14.3423 17.8938 14.5242 17.8422 14.7097 17.8422H25C25.5523 17.8422 26 17.3944 26 16.8422V2Z"
              stroke-width="2"/>
    </symbol>


    <symbol id="arrow-left" viewBox="0 0 16 11">
        <line x1="1" y1="5.35" x2="16" y2="5.35" stroke-width="1.3"/>
        <path d="M6 1L1 5.5L6 10" stroke-width="1.3"/>
    </symbol>

    <symbol id="arrow-right" viewBox="0 0 23 15">
        <line y1="-0.65" x2="21.6667" y2="-0.65" transform="matrix(-1 0 0 1 21.667 8.22266)" stroke-width="1.3"/>
        <path d="M14.4448 1L21.667 7.5L14.4448 14" stroke-width="1.3"/>
    </symbol>

    <symbol id="phone" viewBox="0 0 35 35">
        <path d="M7.11078 21.6266C8.25172 21.3811 9.1543 21.9109 9.95348 22.3735C10.7719 22.8502 12.3282 24.1127 13.2203 23.7896C17.7876 21.9091 22.0832 17.9115 23.9427 13.3259C24.2704 12.4148 23.0138 10.8486 22.5406 10.0205C22.0814 9.21889 21.5626 8.30778 21.7992 7.1583C22.0131 6.12535 24.7787 2.60628 25.7566 1.64396C26.4016 1.00831 27.0623 0.658695 27.7405 0.602192C30.2906 0.492718 33.1385 3.89525 33.638 4.70925C34.8894 6.44495 34.8823 8.7545 33.617 11.5549C30.5675 19.0769 19.0337 30.4287 11.4835 33.5928C10.0902 34.2444 8.81605 34.571 7.67161 34.571C6.5517 34.571 5.55448 34.2585 4.69746 33.6387C4.05075 33.2662 0.508766 30.2768 0.601654 27.6583C0.657738 26.9908 1.0065 26.3234 1.63393 25.6771C2.58909 24.6901 6.08551 21.842 7.11078 21.6266Z"/>
    </symbol>


    <symbol id="filter" viewBox="0 0 29 28">
        <path d="M11.7574 22.7175H1" stroke-width="1.5" stroke-linecap="round" stroke-linejoin="round"/>
        <path fill-rule="evenodd" clip-rule="evenodd"
              d="M28.1171 22.7172C28.1171 25.0825 26.1997 26.9999 23.8344 26.9999C21.4692 26.9999 19.5518 25.0825 19.5518 22.7172C19.5518 20.3502 21.4692 18.4346 23.8344 18.4346C26.1997 18.4346 28.1171 20.3502 28.1171 22.7172Z"
              stroke-width="1.5" stroke-linecap="round" stroke-linejoin="round"/>
        <path d="M17.3574 5.28293H28.1165" stroke="white" stroke-width="1.5" stroke-linecap="round"
              stroke-linejoin="round"/>
        <path fill-rule="evenodd" clip-rule="evenodd"
              d="M1 5.28266C1 7.64967 2.9174 9.56532 5.28266 9.56532C7.64792 9.56532 9.56532 7.64967 9.56532 5.28266C9.56532 2.9174 7.64792 1 5.28266 1C2.9174 1 1 2.9174 1 5.28266Z"
              stroke-width="1.5" stroke-linecap="round" stroke-linejoin="round"/>
    </symbol>

    <symbol id="send" viewBox="0 0 22 22">
        <path d="M13.6969 8.39358L9.40089 12.7625M9.40089 12.7625C5.6406 10.0282 3.64475 8.62777 1.36309 6.9464C13.5191 3.1595 13.5191 3.1595 20.9515 0.999834C19.2208 7.07968 19.2256 7.64651 15.3195 20.6699C12.2141 16.492 12.2141 16.492 9.40089 12.7625Z"
              stroke-linecap="round" stroke-linejoin="round"/>
    </symbol>

    <symbol id="fb" viewBox="0 0 40 40">
        <path d="M40 20C40 8.95312 31.0469 0 20 0C8.95312 0 0 8.95312 0 20C0 31.0469 8.95312 40 20 40C20.1172 40 20.2344 40 20.3516 39.9922V24.4297H16.0547V19.4219H20.3516V15.7344C20.3516 11.4609 22.9609 9.13281 26.7734 9.13281C28.6016 9.13281 30.1719 9.26562 30.625 9.32812V13.7969H28C25.9297 13.7969 25.5234 14.7812 25.5234 16.2266V19.4141H30.4844L29.8359 24.4219H25.5234V39.2266C33.8828 36.8281 40 29.1328 40 20Z"/>
    </symbol>

    <symbol id="vk" viewBox="0 0 41 41">
        <path d="M20.1393 0C9.01646 0 0 9.01646 0 20.1393C0 31.2622 9.01646 40.2787 20.1393 40.2787C31.2622 40.2787 40.2787 31.2622 40.2787 20.1393C40.2787 9.01646 31.2622 0 20.1393 0ZM30.9629 27.7819C30.1034 28.3194 26.6109 28.4795 25.7654 27.8652C25.3016 27.5284 24.8775 27.107 24.4748 26.7056C24.193 26.425 23.8731 26.2889 23.631 25.9844C23.4334 25.7353 23.2977 25.4412 23.0896 25.1951C22.7383 24.7824 22.1978 24.4312 21.7702 24.9355C21.1262 25.6942 21.8714 27.1842 21.0128 27.7509C20.7248 27.9412 20.4343 27.9961 20.0743 27.9691L19.2772 28.0053C18.8091 28.0145 18.0674 28.0188 17.5347 27.9228C16.9404 27.8155 16.4496 27.4909 15.9121 27.2527C14.892 26.8002 13.9204 26.1838 13.1809 25.3299C11.1683 23.0045 8.46498 19.8064 7.41482 16.8828C7.19885 16.2821 6.62818 15.0923 7.16919 14.577C7.90478 14.0426 11.5151 13.892 12.0784 14.7184C12.307 15.0543 12.4514 15.5456 12.6133 15.9265C12.8148 16.4012 12.9239 16.8484 13.2389 17.2685C13.5177 17.6411 13.7232 18.0159 13.9387 18.4243C14.1809 18.8828 14.4095 19.3226 14.704 19.7445C14.9038 20.0316 15.4322 20.6027 15.7659 20.645C16.5809 20.7493 16.5303 18.7689 16.4697 18.2855C16.4116 17.8196 16.3968 17.3252 16.4121 16.8527C16.4252 16.4496 16.4614 15.8815 16.2227 15.5526C15.8336 15.0159 14.9666 15.4173 14.899 14.6961C15.0421 14.4915 15.012 14.31 15.9679 13.995C16.721 13.7476 17.2074 13.7555 17.7039 13.7952C18.7162 13.8763 19.7894 13.6023 20.7667 13.9304C21.7004 14.245 21.556 15.5718 21.5246 16.3667C21.4823 17.4518 21.5276 18.5111 21.5246 19.6127C21.5233 20.114 21.5032 20.6022 22.1149 20.5612C22.6882 20.5233 22.7466 20.0407 23.0202 19.6428C23.4006 19.0879 23.7501 18.5251 24.1375 17.9723C24.6598 17.2249 24.8177 16.385 25.3094 15.6193C25.4853 15.3458 25.6366 14.7629 25.9076 14.5465C26.1126 14.382 26.5023 14.468 26.7505 14.468H27.3408C27.7924 14.468 28.2531 14.4645 28.7173 14.4806C29.3857 14.5037 30.1344 14.3502 30.7971 14.444C33.657 14.8475 27.2025 20.9613 27.5385 22.0529C27.7706 22.8068 29.2431 23.6493 29.7745 24.2667C30.48 25.0891 32.6518 26.7239 30.9629 27.7819Z"/>
    </symbol>

    <symbol id="instagram" viewBox="0 0 41 41">
        <path d="M21.5092 16.6976C19.7108 15.9053 17.4944 16.8455 16.7279 18.62C16.2274 19.7783 16.2222 20.9419 16.631 21.9009C17.1441 23.1046 18.309 23.9855 19.9647 24.1308C21.8661 24.297 23.4961 22.9497 23.9341 21.1295C24.343 19.428 23.076 17.3883 21.5092 16.6976Z"/>
        <path d="M24.1452 10.5232C21.1016 10.4163 18.0606 10.5555 15.0157 10.6375C11.1044 10.7422 10.3295 15.1745 10.412 18.6099C10.4255 19.1753 10.4137 19.7539 10.3941 20.3385C10.3046 23.0566 10.3788 27.8384 12.9612 29.2402C14.0227 29.817 15.2985 29.8357 16.4734 29.7921C17.8857 29.7389 19.2866 29.7341 20.6989 29.8061C22.6714 29.9064 24.6225 29.9841 26.5671 29.5216C29.2638 28.8794 29.7276 27.5413 29.9187 25.1416C30.0016 24.0937 29.9174 22.8306 29.9261 21.5331C29.944 18.7059 30.5688 13.7112 28.1159 11.6C27.0409 10.6759 25.4968 10.5716 24.1452 10.5232ZM23.3603 25.4047C20.1413 27.7101 15.3966 25.8183 14.3033 22.136C14.2291 21.8869 14.1715 21.6299 14.1327 21.3647C13.8543 19.4729 14.6392 16.4153 16.5153 15.2504C20.2578 12.9263 23.366 14.6309 24.698 16.2186C25.4148 17.0737 25.9458 18.2827 26.1299 19.3957C26.5086 21.6884 25.1954 24.0897 23.3603 25.4047ZM26.8027 15.4703C25.9667 15.7264 24.7141 14.839 25.311 13.353C25.6247 12.5729 26.4122 12.3622 27.3502 12.8674C28.0876 13.2649 28.2014 15.0427 26.8027 15.4703Z"/>
        <path d="M20.1393 0C9.01646 0 0 9.01646 0 20.1393C0 31.2622 9.01646 40.2787 20.1393 40.2787C31.2622 40.2787 40.2787 31.2622 40.2787 20.1393C40.2787 9.01646 31.2622 0 20.1393 0ZM31.9529 20.2144C31.9843 21.7388 31.8896 23.2619 31.9319 24.7881C32.0087 27.5515 31.0118 30.2156 28.2217 31.3072C24.8378 32.6309 20.7122 31.9027 17.1647 31.9027C15.6285 31.9027 14.0495 32.0253 12.5753 31.5881C11.4475 31.2531 10.7202 30.6152 9.93878 29.74C9.58713 29.3465 9.35764 28.9521 9.1696 28.4704C8.26167 26.141 8.43618 24.0027 8.3354 21.5516C8.27737 20.1511 8.30311 18.7476 8.3162 17.3453C8.33453 15.4291 8.321 13.7149 9.02606 11.9008C9.73809 10.0675 12.18 8.62205 14.0735 8.4977C17.957 8.24378 22.0468 7.90652 25.9072 8.52693C27.4294 8.7717 29.0332 9.27256 30.1274 10.4104C31.5532 11.8921 31.901 14.009 31.966 16.1368C32.0096 17.5526 31.9276 18.9727 31.9529 20.2144Z"/>
    </symbol>

    <symbol id="prev" viewBox="0 0 22 38">
        <path d="M21 1L1 19L21 37" stroke-width="2" stroke-linecap="round" stroke-linejoin="round"/>
    </symbol>

    <symbol id="next" viewBox="0 0 22 38">
        <path d="M1 1L21 19L1 37" stroke-width="2" stroke-linecap="round" stroke-linejoin="round"/>
    </symbol>

</svg>