<svg width="287" height="20" viewBox="0 0 287 20" fill="none" xmlns="http://www.w3.org/2000/svg">
    <path d="M0 19.5775H4.43136V11.8028H12.9532V19.5775H17.3846V0.422536H12.9532V8H4.43136V0.422536H0V19.5775Z" fill="white"/>
    <path d="M26.3081 19.5775H30.7394V11.6901L37.8978 0.507042V0.422536H32.6995L28.5238 7.43662L24.348 0.422536H19.1497V0.507042L26.3081 11.6901V19.5775Z" fill="white"/>
    <path d="M47.8497 20C53.5877 20 56.2579 16.2535 56.2579 11.3239V0.422536H51.8265V11.0704C51.8265 13.9437 50.8039 15.9437 47.8497 15.9437C44.8954 15.9437 43.8728 13.9437 43.8728 11.0704V0.422536H39.4415V11.3239C39.4415 16.2535 42.1116 20 47.8497 20Z" fill="white"/>
    <path d="M59.7805 19.5775H64.2118V7.69014L73.8699 19.5775H77.7048V0.422536H73.2734V12.3099L63.6437 0.422536H59.7805V19.5775Z" fill="white"/>
    <path d="M81.4457 19.5775H89.5699C95.2795 19.5775 99.3132 16.1972 99.3132 10C99.3132 3.80282 95.2795 0.422536 89.5699 0.422536H81.4457V19.5775ZM89.371 4.25352C92.6945 4.25352 94.7398 6.28169 94.7398 10C94.7398 13.7183 92.6945 15.7465 89.371 15.7465H85.8771V4.25352H89.371Z" fill="white"/>
    <path d="M99.3729 19.5775H103.946L105.31 15.9155H113.434L114.797 19.5775H119.371L112.014 0.422536H106.73L99.3729 19.5775ZM109.372 5.01408L112.014 12.1127H106.73L109.372 5.01408Z" fill="white"/>
    <path d="M121.059 19.5775H125.49V0.422536H121.059V19.5775Z" fill="white"/>
    <path d="M134.985 19.5775H139.416V12.7606H142.768C146.858 12.7606 149.869 10.9014 149.869 6.59155C149.869 2.28169 146.858 0.422536 142.768 0.422536H134.985V19.5775ZM139.416 8.95775V4.22535H142.171C143.961 4.22535 145.296 4.70423 145.296 6.59155C145.296 8.47887 143.961 8.95775 142.171 8.95775H139.416Z" fill="white"/>
    <path d="M152.322 19.5775H156.157L165.815 7.69014V19.5775H170.247V0.422536H166.383L156.754 12.3099V0.422536H152.322V19.5775Z" fill="white"/>
    <path d="M173.988 19.5775H178.419V11.8028H186.941V19.5775H191.372V0.422536H186.941V8H178.419V0.422536H173.988V19.5775Z" fill="white"/>
    <path d="M195.126 19.5775H199.557V4.22535H208.363V0.422536H195.126V19.5775Z" fill="white"/>
    <path d="M212.775 19.5775H217.349L218.712 15.9155H226.836L228.2 19.5775H232.773L225.416 0.422536H220.133L212.775 19.5775ZM222.774 5.01408L225.416 12.1127H220.133L222.774 5.01408Z" fill="white"/>
    <path d="M234.462 19.5775H243.551C248.068 19.5775 250.596 17.6338 250.596 14.0563C250.596 11.5493 249.176 10.0563 247.045 9.32394C248.409 8.42254 249.176 7.07042 249.176 5.5493C249.176 2.28169 246.648 0.422536 242.813 0.422536H234.462V19.5775ZM238.893 15.9718V11.662H243.381C245.227 11.662 246.023 12.4507 246.023 13.831C246.023 15.1831 245.227 15.9718 243.381 15.9718H238.893ZM238.893 8.05634V4.02817H242.188C244.034 4.02817 244.603 4.84507 244.603 6.02817C244.603 7.23944 244.034 8.05634 242.188 8.05634H238.893Z" fill="white"/>
    <path d="M256.613 19.5775H261.044V4.22535H266.754V0.422536H250.903V4.22535H256.613V19.5775Z" fill="white"/>
    <path d="M277.058 20C282.853 20 287 15.8028 287 10C287 4.19718 282.853 0 277.058 0C271.263 0 267.116 4.19718 267.116 10C267.116 15.8028 271.263 20 277.058 20ZM277.058 15.9437C273.678 15.9437 271.689 13.3803 271.689 10C271.689 6.61972 273.678 4.05634 277.058 4.05634C280.438 4.05634 282.427 6.61972 282.427 10C282.427 13.3803 280.438 15.9437 277.058 15.9437Z" fill="white"/>
</svg>
